<?xml version="1.0" encoding="UTF-8" standalone="no"?>
<svg
   xmlns:dc="http://purl.org/dc/elements/1.1/"
   xmlns:cc="http://creativecommons.org/ns#"
   xmlns:rdf="http://www.w3.org/1999/02/22-rdf-syntax-ns#"
   xmlns:svg="http://www.w3.org/2000/svg"
   xmlns="http://www.w3.org/2000/svg"
   xmlns:sodipodi="http://sodipodi.sourceforge.net/DTD/sodipodi-0.dtd"
   xmlns:inkscape="http://www.inkscape.org/namespaces/inkscape"
   width="71.084999pt"
   height="19.559pt"
   viewBox="0 0 71.084999 19.559"
   version="1.2"
   id="svg289"
   sodipodi:docname="covert_annotated.svg"
   inkscape:version="0.92.5 (2060ec1f9f, 2020-04-08)">
  <metadata
     id="metadata293">
    <rdf:RDF>
      <cc:Work
         rdf:about="">
        <dc:format>image/svg+xml</dc:format>
        <dc:type
           rdf:resource="http://purl.org/dc/dcmitype/StillImage" />
        <dc:title></dc:title>
      </cc:Work>
    </rdf:RDF>
  </metadata>
  <sodipodi:namedview
     pagecolor="#ffffff"
     bordercolor="#666666"
     borderopacity="1"
     objecttolerance="10"
     gridtolerance="10"
     guidetolerance="10"
     inkscape:pageopacity="0"
     inkscape:pageshadow="2"
     inkscape:window-width="1920"
     inkscape:window-height="1019"
     id="namedview291"
     showgrid="false"
     inkscape:zoom="4.2730534"
     inkscape:cx="47.389999"
     inkscape:cy="13.039333"
     inkscape:window-x="0"
     inkscape:window-y="18"
     inkscape:window-maximized="1"
     inkscape:current-layer="svg289" />
  <defs
     id="defs8">
    <clipPath
       id="clip1">
      <path
         d="M 67 3 L 71.085938 3 L 71.085938 8 L 67 8 Z M 67 3 "
         id="path2" />
    </clipPath>
    <clipPath
       id="clip2">
      <path
         d="M 68 9 L 71.085938 9 L 71.085938 15 L 68 15 Z M 68 9 "
         id="path5" />
    </clipPath>
  </defs>
  <g
     id="surface396">
    <path
       style="fill:none;stroke-width:0.09962;stroke-linecap:butt;stroke-linejoin:miter;stroke:rgb(49.01886%,49.01886%,49.01886%);stroke-opacity:0.5;stroke-dasharray:0.99628,0.49814;stroke-miterlimit:10;"
       d="M 13.300781 16.15625 L 13.300781 0.921875 "
       id="path10" />
    <path
       style="fill:none;stroke-width:0.09962;stroke-linecap:butt;stroke-linejoin:miter;stroke:rgb(49.01886%,49.01886%,49.01886%);stroke-opacity:0.5;stroke-dasharray:0.99628,0.49814;stroke-miterlimit:10;"
       d="M 40.976562 16.15625 L 40.976562 0.921875 "
       id="path12" />
    <path
       style="fill:none;stroke-width:0.09962;stroke-linecap:butt;stroke-linejoin:miter;stroke:rgb(49.01886%,49.01886%,49.01886%);stroke-opacity:0.5;stroke-dasharray:0.99628,0.49814;stroke-miterlimit:10;"
       d="M 68.429688 16.15625 L 68.429688 0.921875 "
       id="path14" />
    <path
       style=" stroke:none;fill-rule:nonzero;fill:rgb(0%,0%,0%);fill-opacity:1;"
       d="M 4.53125 5.746094 L 4.953125 5.746094 L 4.953125 5.933594 C 4.953125 5.996094 4.953125 6.074219 5.09375 6.074219 C 5.21875 6.074219 5.21875 5.996094 5.21875 5.933594 L 5.21875 5.667969 C 5.21875 5.558594 5.1875 5.527344 5.078125 5.527344 L 3.71875 5.527344 C 3.609375 5.527344 3.5625 5.542969 3.5625 5.667969 L 3.5625 5.933594 C 3.5625 5.996094 3.5625 6.074219 3.6875 6.074219 C 3.828125 6.074219 3.828125 5.996094 3.828125 5.933594 L 3.828125 5.746094 L 4.265625 5.746094 L 4.265625 7.417969 L 4.09375 7.417969 C 4.046875 7.417969 3.9375 7.417969 3.9375 7.542969 C 3.9375 7.652344 4.046875 7.652344 4.09375 7.652344 L 4.6875 7.652344 C 4.75 7.652344 4.84375 7.652344 4.84375 7.542969 C 4.84375 7.417969 4.734375 7.417969 4.6875 7.417969 L 4.53125 7.417969 Z M 4.53125 5.746094 "
       id="path16" />
    <path
       style=" stroke:none;fill-rule:nonzero;fill:rgb(0%,0%,0%);fill-opacity:1;"
       d="M 6.355469 6.511719 L 6.746094 5.746094 L 6.808594 5.746094 C 6.871094 5.746094 6.964844 5.746094 6.964844 5.636719 C 6.964844 5.527344 6.855469 5.527344 6.808594 5.527344 L 6.449219 5.527344 C 6.402344 5.527344 6.292969 5.527344 6.292969 5.636719 C 6.292969 5.746094 6.402344 5.746094 6.449219 5.746094 L 6.230469 6.214844 L 5.980469 5.746094 C 6.027344 5.746094 6.136719 5.746094 6.136719 5.636719 C 6.136719 5.527344 6.027344 5.527344 5.980469 5.527344 L 5.621094 5.527344 C 5.558594 5.527344 5.464844 5.527344 5.464844 5.636719 C 5.464844 5.746094 5.574219 5.746094 5.621094 5.746094 L 5.683594 5.746094 L 6.089844 6.511719 L 5.652344 7.417969 L 5.574219 7.417969 C 5.527344 7.417969 5.417969 7.417969 5.417969 7.542969 C 5.417969 7.652344 5.527344 7.652344 5.574219 7.652344 L 5.933594 7.652344 C 5.996094 7.652344 6.089844 7.652344 6.089844 7.542969 C 6.089844 7.417969 5.996094 7.417969 5.933594 7.417969 L 6.230469 6.792969 L 6.542969 7.417969 C 6.496094 7.417969 6.402344 7.417969 6.402344 7.542969 C 6.402344 7.652344 6.496094 7.652344 6.542969 7.652344 L 6.917969 7.652344 C 6.964844 7.652344 7.074219 7.652344 7.074219 7.542969 C 7.074219 7.417969 6.964844 7.417969 6.917969 7.417969 L 6.839844 7.417969 Z M 6.355469 6.511719 "
       id="path18" />
    <path
       style="fill:none;stroke-width:0.29887;stroke-linecap:round;stroke-linejoin:round;stroke:rgb(0%,0%,0%);stroke-opacity:1;stroke-miterlimit:10;"
       d="M 10.644531 3.226562 L 12.859375 3.226562 L 13.414062 5.441406 L 12.859375 7.652344 L 10.644531 7.652344 "
       id="path20" />
    <path
       style=" stroke:none;fill-rule:nonzero;fill:rgb(0%,0%,0%);fill-opacity:1;"
       d="M 11.042969 5.347656 L 11.230469 5.347656 L 11.230469 5.535156 L 11.042969 5.535156 Z M 11.042969 5.347656 "
       id="path22" />
    <path
       style=" stroke:none;fill-rule:nonzero;fill:rgb(0%,0%,0%);fill-opacity:1;"
       d="M 11.664062 5.347656 L 11.851562 5.347656 L 11.851562 5.535156 L 11.664062 5.535156 Z M 11.664062 5.347656 "
       id="path24" />
    <path
       style=" stroke:none;fill-rule:nonzero;fill:rgb(0%,0%,0%);fill-opacity:1;"
       d="M 12.28125 5.347656 L 12.46875 5.347656 L 12.46875 5.535156 L 12.28125 5.535156 Z M 12.28125 5.347656 "
       id="path26" />
    <path
       style="fill:none;stroke-width:0.29887;stroke-linecap:round;stroke-linejoin:round;stroke:rgb(0%,0%,0%);stroke-opacity:1;stroke-miterlimit:10;"
       d="M 13.414062 5.441406 L 13.964844 3.226562 L 21.714844 3.226562 L 22.269531 5.441406 L 21.714844 7.652344 L 13.964844 7.652344 L 13.414062 5.441406 "
       id="path28" />
    <path
       style=" stroke:none;fill-rule:nonzero;fill:rgb(0%,0%,0%);fill-opacity:1;"
       d="M 16.402344 4.714844 L 16.621094 4.714844 L 16.621094 6.167969 L 16.402344 6.167969 Z M 16.402344 4.714844 "
       id="path30" />
    <path
       style=" stroke:none;fill-rule:nonzero;fill:rgb(0%,0%,0%);fill-opacity:1;"
       d="M 17.785156 4.714844 L 17.613281 4.714844 L 17.613281 5.324219 C 17.472656 5.230469 17.347656 5.214844 17.285156 5.214844 C 17.066406 5.214844 16.894531 5.433594 16.894531 5.699219 C 16.894531 5.964844 17.050781 6.183594 17.269531 6.183594 C 17.410156 6.183594 17.519531 6.136719 17.597656 6.058594 L 17.597656 6.167969 L 17.785156 6.167969 Z M 17.597656 5.902344 C 17.550781 5.996094 17.472656 6.042969 17.378906 6.042969 C 17.222656 6.042969 17.066406 5.949219 17.066406 5.699219 C 17.066406 5.449219 17.253906 5.355469 17.394531 5.355469 C 17.472656 5.355469 17.550781 5.386719 17.597656 5.464844 Z M 17.597656 5.902344 "
       id="path32" />
    <path
       style=" stroke:none;fill-rule:nonzero;fill:rgb(0%,0%,0%);fill-opacity:1;"
       d="M 18.136719 4.714844 L 18.324219 4.714844 L 18.324219 6.167969 L 18.136719 6.167969 Z M 18.136719 4.714844 "
       id="path34" />
    <path
       style=" stroke:none;fill-rule:nonzero;fill:rgb(0%,0%,0%);fill-opacity:1;"
       d="M 19.398438 5.933594 C 19.273438 6.027344 19.148438 6.042969 19.054688 6.042969 C 18.867188 6.042969 18.726562 5.902344 18.726562 5.714844 L 19.414062 5.714844 C 19.414062 5.605469 19.398438 5.480469 19.320312 5.355469 C 19.242188 5.246094 19.117188 5.199219 19.023438 5.199219 C 18.757812 5.199219 18.570312 5.433594 18.570312 5.699219 C 18.570312 5.964844 18.773438 6.183594 19.054688 6.183594 C 19.179688 6.183594 19.304688 6.152344 19.398438 6.089844 Z M 18.742188 5.589844 C 18.789062 5.417969 18.914062 5.339844 19.023438 5.339844 C 19.117188 5.339844 19.242188 5.386719 19.289062 5.589844 Z M 18.742188 5.589844 "
       id="path36" />
    <path
       style="fill:none;stroke-width:0.29887;stroke-linecap:round;stroke-linejoin:round;stroke:rgb(0%,0%,0%);stroke-opacity:1;stroke-miterlimit:10;"
       d="M 22.269531 5.441406 L 22.820312 3.226562 L 23.929688 3.226562 L 24.480469 5.441406 L 23.929688 7.652344 L 22.820312 7.652344 L 22.269531 5.441406 "
       id="path38" />
    <path
       style=" stroke:none;fill-rule:nonzero;fill:rgb(0%,0%,0%);fill-opacity:1;"
       d="M 23.835938 5.441406 C 23.835938 5.347656 23.835938 5.097656 23.742188 4.925781 C 23.632812 4.738281 23.476562 4.707031 23.382812 4.707031 C 23.273438 4.707031 23.117188 4.738281 23.007812 4.925781 C 22.914062 5.082031 22.914062 5.316406 22.914062 5.441406 C 22.914062 5.597656 22.914062 5.800781 23.007812 5.957031 C 23.101562 6.128906 23.257812 6.175781 23.382812 6.175781 C 23.585938 6.175781 23.695312 6.050781 23.757812 5.925781 C 23.835938 5.769531 23.835938 5.582031 23.835938 5.441406 Z M 23.382812 6.035156 C 23.289062 6.035156 23.179688 5.988281 23.132812 5.832031 C 23.085938 5.707031 23.085938 5.566406 23.085938 5.425781 C 23.085938 5.222656 23.085938 4.847656 23.382812 4.847656 C 23.664062 4.847656 23.664062 5.222656 23.664062 5.425781 C 23.664062 5.566406 23.664062 5.722656 23.617188 5.847656 C 23.554688 6.003906 23.445312 6.035156 23.382812 6.035156 Z M 23.382812 6.035156 "
       id="path40" />
    <path
       style="fill:none;stroke-width:0.29887;stroke-linecap:round;stroke-linejoin:round;stroke:rgb(0%,0%,0%);stroke-opacity:1;stroke-miterlimit:10;"
       d="M 24.480469 5.441406 L 25.035156 3.226562 L 26.144531 3.226562 L 26.695312 5.441406 L 26.144531 7.652344 L 25.035156 7.652344 L 24.480469 5.441406 "
       id="path42" />
    <path
       style=" stroke:none;fill-rule:nonzero;fill:rgb(0%,0%,0%);fill-opacity:1;"
       d="M 25.703125 4.707031 L 25.65625 4.707031 C 25.515625 4.832031 25.34375 4.847656 25.21875 4.847656 L 25.21875 4.988281 C 25.3125 4.972656 25.40625 4.972656 25.515625 4.925781 L 25.515625 6.003906 L 25.234375 6.003906 L 25.234375 6.128906 L 25.984375 6.128906 L 25.984375 6.003906 L 25.703125 6.003906 Z M 25.703125 4.707031 "
       id="path44" />
    <path
       style="fill-rule:nonzero;fill:rgb(9.01947%,54.116821%,69.018555%);fill-opacity:1;stroke-width:0.29887;stroke-linecap:round;stroke-linejoin:round;stroke:rgb(0%,0%,0%);stroke-opacity:1;stroke-miterlimit:10;"
       d="M 26.695312 5.441406 L 27.25 3.226562 L 28.355469 3.226562 L 28.910156 5.441406 L 28.355469 7.652344 L 27.25 7.652344 L 26.695312 5.441406 "
       id="path46" />
    <path
       style=" stroke:none;fill-rule:nonzero;fill:rgb(0%,0%,0%);fill-opacity:1;"
       d="M 27.839844 5.972656 C 27.808594 5.972656 27.792969 5.972656 27.761719 5.972656 L 27.527344 5.972656 L 27.855469 5.675781 C 27.886719 5.644531 27.996094 5.566406 28.027344 5.535156 C 28.121094 5.457031 28.246094 5.347656 28.246094 5.160156 C 28.246094 4.925781 28.074219 4.707031 27.777344 4.707031 C 27.542969 4.707031 27.402344 4.832031 27.339844 5.050781 L 27.433594 5.160156 C 27.480469 4.988281 27.558594 4.863281 27.746094 4.863281 C 27.917969 4.863281 28.042969 4.972656 28.042969 5.160156 C 28.042969 5.347656 27.949219 5.441406 27.824219 5.566406 C 27.777344 5.597656 27.667969 5.691406 27.621094 5.738281 C 27.558594 5.785156 27.417969 5.925781 27.355469 5.988281 L 27.355469 6.128906 L 28.246094 6.128906 L 28.246094 5.972656 Z M 27.839844 5.972656 "
       id="path48" />
    <path
       style="fill:none;stroke-width:0.29887;stroke-linecap:round;stroke-linejoin:round;stroke:rgb(0%,0%,0%);stroke-opacity:1;stroke-miterlimit:10;"
       d="M 28.910156 5.441406 L 29.464844 3.226562 L 30.570312 3.226562 L 31.125 5.441406 L 30.570312 7.652344 L 29.464844 7.652344 L 28.910156 5.441406 "
       id="path50" />
    <path
       style=" stroke:none;fill-rule:nonzero;fill:rgb(0%,0%,0%);fill-opacity:1;"
       d="M 29.664062 5.050781 C 29.757812 4.894531 29.914062 4.847656 30.007812 4.847656 C 30.132812 4.847656 30.226562 4.910156 30.226562 5.035156 C 30.226562 5.144531 30.148438 5.285156 29.992188 5.300781 C 29.976562 5.300781 29.976562 5.300781 29.835938 5.316406 L 29.835938 5.457031 L 29.992188 5.457031 C 30.195312 5.457031 30.273438 5.613281 30.273438 5.738281 C 30.273438 5.910156 30.164062 6.035156 30.007812 6.035156 C 29.851562 6.035156 29.679688 5.957031 29.585938 5.832031 L 29.554688 5.972656 C 29.679688 6.097656 29.851562 6.175781 30.007812 6.175781 C 30.289062 6.175781 30.476562 5.972656 30.476562 5.753906 C 30.476562 5.582031 30.335938 5.441406 30.179688 5.394531 C 30.335938 5.300781 30.414062 5.160156 30.414062 5.035156 C 30.414062 4.847656 30.226562 4.707031 30.007812 4.707031 C 29.820312 4.707031 29.679688 4.800781 29.585938 4.925781 Z M 29.664062 5.050781 "
       id="path52" />
    <path
       style="fill:none;stroke-width:0.29887;stroke-linecap:round;stroke-linejoin:round;stroke:rgb(0%,0%,0%);stroke-opacity:1;stroke-miterlimit:10;"
       d="M 31.125 5.441406 L 31.675781 3.226562 L 32.785156 3.226562 L 33.339844 5.441406 L 32.785156 7.652344 L 31.675781 7.652344 L 31.125 5.441406 "
       id="path54" />
    <path
       style=" stroke:none;fill-rule:nonzero;fill:rgb(0%,0%,0%);fill-opacity:1;"
       d="M 32.503906 5.785156 L 32.722656 5.785156 L 32.722656 5.644531 L 32.503906 5.644531 L 32.503906 4.753906 L 32.300781 4.753906 L 31.738281 5.644531 L 31.738281 5.785156 L 32.332031 5.785156 L 32.332031 6.128906 L 32.503906 6.128906 Z M 31.910156 5.644531 C 31.972656 5.535156 32.332031 4.988281 32.332031 4.863281 L 32.332031 5.644531 Z M 31.910156 5.644531 "
       id="path56" />
    <path
       style="fill:none;stroke-width:0.29887;stroke-linecap:round;stroke-linejoin:round;stroke:rgb(0%,0%,0%);stroke-opacity:1;stroke-miterlimit:10;"
       d="M 33.339844 5.441406 L 33.890625 3.226562 L 35 3.226562 L 35.550781 5.441406 L 35 7.652344 L 33.890625 7.652344 L 33.339844 5.441406 "
       id="path58" />
    <path
       style=" stroke:none;fill-rule:nonzero;fill:rgb(0%,0%,0%);fill-opacity:1;"
       d="M 34.234375 4.894531 L 34.8125 4.894531 L 34.8125 4.753906 L 34.0625 4.753906 L 34.0625 5.535156 L 34.21875 5.535156 C 34.265625 5.425781 34.375 5.378906 34.46875 5.378906 C 34.546875 5.378906 34.671875 5.441406 34.671875 5.707031 C 34.671875 5.972656 34.5 6.035156 34.390625 6.035156 C 34.265625 6.035156 34.125 5.957031 34.046875 5.847656 L 33.96875 5.972656 C 34.078125 6.097656 34.234375 6.175781 34.390625 6.175781 C 34.671875 6.175781 34.890625 5.957031 34.890625 5.707031 C 34.890625 5.441406 34.703125 5.238281 34.46875 5.238281 C 34.375 5.238281 34.296875 5.269531 34.234375 5.316406 Z M 34.234375 4.894531 "
       id="path60" />
    <path
       style="fill:none;stroke-width:0.29887;stroke-linecap:round;stroke-linejoin:round;stroke:rgb(0%,0%,0%);stroke-opacity:1;stroke-miterlimit:10;"
       d="M 35.550781 5.441406 L 36.105469 3.226562 L 37.210938 3.226562 L 37.765625 5.441406 L 37.210938 7.652344 L 36.105469 7.652344 L 35.550781 5.441406 "
       id="path62" />
    <path
       style=" stroke:none;fill-rule:nonzero;fill:rgb(0%,0%,0%);fill-opacity:1;"
       d="M 37.023438 4.753906 C 36.914062 4.707031 36.820312 4.707031 36.789062 4.707031 C 36.476562 4.707031 36.195312 5.003906 36.195312 5.457031 C 36.195312 6.019531 36.445312 6.175781 36.664062 6.175781 C 36.835938 6.175781 36.914062 6.097656 36.976562 6.019531 C 37.117188 5.878906 37.117188 5.738281 37.117188 5.660156 C 37.117188 5.394531 36.976562 5.160156 36.773438 5.160156 C 36.554688 5.160156 36.445312 5.269531 36.382812 5.332031 C 36.414062 5.035156 36.570312 4.847656 36.789062 4.847656 C 36.835938 4.847656 36.914062 4.847656 37.023438 4.878906 Z M 36.398438 5.675781 C 36.398438 5.660156 36.398438 5.628906 36.398438 5.613281 C 36.398438 5.472656 36.492188 5.300781 36.664062 5.300781 C 36.929688 5.300781 36.929688 5.597656 36.929688 5.660156 C 36.929688 5.738281 36.929688 5.832031 36.867188 5.910156 C 36.820312 5.988281 36.757812 6.035156 36.664062 6.035156 C 36.445312 6.035156 36.398438 5.753906 36.398438 5.675781 Z M 36.398438 5.675781 "
       id="path64" />
    <path
       style="fill:none;stroke-width:0.29887;stroke-linecap:round;stroke-linejoin:round;stroke:rgb(0%,0%,0%);stroke-opacity:1;stroke-miterlimit:10;"
       d="M 37.765625 5.441406 L 38.320312 3.226562 L 39.425781 3.226562 L 39.980469 5.441406 L 39.425781 7.652344 L 38.320312 7.652344 L 37.765625 5.441406 "
       id="path66" />
    <path
       style=" stroke:none;fill-rule:nonzero;fill:rgb(0%,0%,0%);fill-opacity:1;"
       d="M 38.832031 4.910156 C 38.863281 4.910156 38.878906 4.910156 38.910156 4.910156 L 39.175781 4.910156 C 38.847656 5.222656 38.644531 5.660156 38.644531 6.144531 L 38.847656 6.144531 C 38.847656 5.535156 39.144531 5.097656 39.332031 4.894531 L 39.332031 4.753906 L 38.410156 4.753906 L 38.410156 4.910156 Z M 38.832031 4.910156 "
       id="path68" />
    <path
       style="fill:none;stroke-width:0.29887;stroke-linecap:round;stroke-linejoin:round;stroke:rgb(0%,0%,0%);stroke-opacity:1;stroke-miterlimit:10;"
       d="M 39.980469 5.441406 L 40.53125 3.226562 L 49.167969 3.226562 L 49.722656 5.441406 L 49.167969 7.652344 L 40.53125 7.652344 L 39.980469 5.441406 "
       id="path70" />
    <path
       style=" stroke:none;fill-rule:nonzero;fill:rgb(0%,0%,0%);fill-opacity:1;"
       d="M 43.410156 4.714844 L 43.628906 4.714844 L 43.628906 6.167969 L 43.410156 6.167969 Z M 43.410156 4.714844 "
       id="path72" />
    <path
       style=" stroke:none;fill-rule:nonzero;fill:rgb(0%,0%,0%);fill-opacity:1;"
       d="M 44.792969 4.714844 L 44.621094 4.714844 L 44.621094 5.324219 C 44.480469 5.230469 44.355469 5.214844 44.292969 5.214844 C 44.074219 5.214844 43.902344 5.433594 43.902344 5.699219 C 43.902344 5.964844 44.058594 6.183594 44.277344 6.183594 C 44.417969 6.183594 44.527344 6.136719 44.605469 6.058594 L 44.605469 6.167969 L 44.792969 6.167969 Z M 44.605469 5.902344 C 44.558594 5.996094 44.480469 6.042969 44.386719 6.042969 C 44.230469 6.042969 44.074219 5.949219 44.074219 5.699219 C 44.074219 5.449219 44.261719 5.355469 44.402344 5.355469 C 44.480469 5.355469 44.558594 5.386719 44.605469 5.464844 Z M 44.605469 5.902344 "
       id="path74" />
    <path
       style=" stroke:none;fill-rule:nonzero;fill:rgb(0%,0%,0%);fill-opacity:1;"
       d="M 45.144531 4.714844 L 45.332031 4.714844 L 45.332031 6.167969 L 45.144531 6.167969 Z M 45.144531 4.714844 "
       id="path76" />
    <path
       style=" stroke:none;fill-rule:nonzero;fill:rgb(0%,0%,0%);fill-opacity:1;"
       d="M 46.410156 5.933594 C 46.285156 6.027344 46.160156 6.042969 46.066406 6.042969 C 45.878906 6.042969 45.738281 5.902344 45.738281 5.714844 L 46.425781 5.714844 C 46.425781 5.605469 46.410156 5.480469 46.332031 5.355469 C 46.253906 5.246094 46.128906 5.199219 46.035156 5.199219 C 45.769531 5.199219 45.582031 5.433594 45.582031 5.699219 C 45.582031 5.964844 45.785156 6.183594 46.066406 6.183594 C 46.191406 6.183594 46.316406 6.152344 46.410156 6.089844 Z M 45.753906 5.589844 C 45.800781 5.417969 45.925781 5.339844 46.035156 5.339844 C 46.128906 5.339844 46.253906 5.386719 46.300781 5.589844 Z M 45.753906 5.589844 "
       id="path78" />
    <path
       style="fill:none;stroke-width:0.29887;stroke-linecap:round;stroke-linejoin:round;stroke:rgb(0%,0%,0%);stroke-opacity:1;stroke-miterlimit:10;"
       d="M 49.722656 5.441406 L 50.273438 3.226562 L 51.382812 3.226562 L 51.933594 5.441406 L 51.382812 7.652344 L 50.273438 7.652344 L 49.722656 5.441406 "
       id="path80" />
    <path
       style=" stroke:none;fill-rule:nonzero;fill:rgb(0%,0%,0%);fill-opacity:1;"
       d="M 51.289062 5.441406 C 51.289062 5.347656 51.289062 5.097656 51.195312 4.925781 C 51.085938 4.738281 50.929688 4.707031 50.835938 4.707031 C 50.726562 4.707031 50.570312 4.738281 50.460938 4.925781 C 50.367188 5.082031 50.367188 5.316406 50.367188 5.441406 C 50.367188 5.597656 50.367188 5.800781 50.460938 5.957031 C 50.554688 6.128906 50.710938 6.175781 50.835938 6.175781 C 51.039062 6.175781 51.148438 6.050781 51.210938 5.925781 C 51.289062 5.769531 51.289062 5.582031 51.289062 5.441406 Z M 50.835938 6.035156 C 50.742188 6.035156 50.632812 5.988281 50.585938 5.832031 C 50.539062 5.707031 50.539062 5.566406 50.539062 5.425781 C 50.539062 5.222656 50.539062 4.847656 50.835938 4.847656 C 51.117188 4.847656 51.117188 5.222656 51.117188 5.425781 C 51.117188 5.566406 51.117188 5.722656 51.070312 5.847656 C 51.007812 6.003906 50.898438 6.035156 50.835938 6.035156 Z M 50.835938 6.035156 "
       id="path82" />
    <path
       style="fill:none;stroke-width:0.29887;stroke-linecap:round;stroke-linejoin:round;stroke:rgb(0%,0%,0%);stroke-opacity:1;stroke-miterlimit:10;"
       d="M 51.933594 5.441406 L 52.488281 3.226562 L 53.59375 3.226562 L 54.148438 5.441406 L 53.59375 7.652344 L 52.488281 7.652344 L 51.933594 5.441406 "
       id="path84" />
    <path
       style=" stroke:none;fill-rule:nonzero;fill:rgb(0%,0%,0%);fill-opacity:1;"
       d="M 53.15625 4.707031 L 53.109375 4.707031 C 52.96875 4.832031 52.796875 4.847656 52.671875 4.847656 L 52.671875 4.988281 C 52.765625 4.972656 52.859375 4.972656 52.96875 4.925781 L 52.96875 6.003906 L 52.6875 6.003906 L 52.6875 6.128906 L 53.4375 6.128906 L 53.4375 6.003906 L 53.15625 6.003906 Z M 53.15625 4.707031 "
       id="path86" />
    <path
       style="fill:none;stroke-width:0.29887;stroke-linecap:round;stroke-linejoin:round;stroke:rgb(0%,0%,0%);stroke-opacity:1;stroke-miterlimit:10;"
       d="M 54.148438 5.441406 L 54.703125 3.226562 L 55.808594 3.226562 L 56.363281 5.441406 L 55.808594 7.652344 L 54.703125 7.652344 L 54.148438 5.441406 "
       id="path88" />
    <path
       style=" stroke:none;fill-rule:nonzero;fill:rgb(0%,0%,0%);fill-opacity:1;"
       d="M 55.292969 5.972656 C 55.261719 5.972656 55.246094 5.972656 55.214844 5.972656 L 54.980469 5.972656 L 55.308594 5.675781 C 55.339844 5.644531 55.449219 5.566406 55.480469 5.535156 C 55.574219 5.457031 55.699219 5.347656 55.699219 5.160156 C 55.699219 4.925781 55.527344 4.707031 55.230469 4.707031 C 54.996094 4.707031 54.855469 4.832031 54.792969 5.050781 L 54.886719 5.160156 C 54.933594 4.988281 55.011719 4.863281 55.199219 4.863281 C 55.371094 4.863281 55.496094 4.972656 55.496094 5.160156 C 55.496094 5.347656 55.402344 5.441406 55.277344 5.566406 C 55.230469 5.597656 55.121094 5.691406 55.074219 5.738281 C 55.011719 5.785156 54.871094 5.925781 54.808594 5.988281 L 54.808594 6.128906 L 55.699219 6.128906 L 55.699219 5.972656 Z M 55.292969 5.972656 "
       id="path90" />
    <path
       style="fill:none;stroke-width:0.29887;stroke-linecap:round;stroke-linejoin:round;stroke:rgb(0%,0%,0%);stroke-opacity:1;stroke-miterlimit:10;"
       d="M 56.363281 5.441406 L 56.917969 3.226562 L 58.023438 3.226562 L 58.578125 5.441406 L 58.023438 7.652344 L 56.917969 7.652344 L 56.363281 5.441406 "
       id="path92" />
    <path
       style=" stroke:none;fill-rule:nonzero;fill:rgb(0%,0%,0%);fill-opacity:1;"
       d="M 57.117188 5.050781 C 57.210938 4.894531 57.367188 4.847656 57.460938 4.847656 C 57.585938 4.847656 57.679688 4.910156 57.679688 5.035156 C 57.679688 5.144531 57.601562 5.285156 57.445312 5.300781 C 57.429688 5.300781 57.429688 5.300781 57.289062 5.316406 L 57.289062 5.457031 L 57.445312 5.457031 C 57.648438 5.457031 57.726562 5.613281 57.726562 5.738281 C 57.726562 5.910156 57.617188 6.035156 57.460938 6.035156 C 57.304688 6.035156 57.132812 5.957031 57.039062 5.832031 L 57.007812 5.972656 C 57.132812 6.097656 57.304688 6.175781 57.460938 6.175781 C 57.742188 6.175781 57.929688 5.972656 57.929688 5.753906 C 57.929688 5.582031 57.789062 5.441406 57.632812 5.394531 C 57.789062 5.300781 57.867188 5.160156 57.867188 5.035156 C 57.867188 4.847656 57.679688 4.707031 57.460938 4.707031 C 57.273438 4.707031 57.132812 4.800781 57.039062 4.925781 Z M 57.117188 5.050781 "
       id="path94" />
    <path
       style="fill:none;stroke-width:0.29887;stroke-linecap:round;stroke-linejoin:round;stroke:rgb(0%,0%,0%);stroke-opacity:1;stroke-miterlimit:10;"
       d="M 58.578125 5.441406 L 59.128906 3.226562 L 60.238281 3.226562 L 60.789062 5.441406 L 60.238281 7.652344 L 59.128906 7.652344 L 58.578125 5.441406 "
       id="path96" />
    <path
       style=" stroke:none;fill-rule:nonzero;fill:rgb(0%,0%,0%);fill-opacity:1;"
       d="M 59.957031 5.785156 L 60.175781 5.785156 L 60.175781 5.644531 L 59.957031 5.644531 L 59.957031 4.753906 L 59.753906 4.753906 L 59.191406 5.644531 L 59.191406 5.785156 L 59.785156 5.785156 L 59.785156 6.128906 L 59.957031 6.128906 Z M 59.363281 5.644531 C 59.425781 5.535156 59.785156 4.988281 59.785156 4.863281 L 59.785156 5.644531 Z M 59.363281 5.644531 "
       id="path98" />
    <path
       style="fill:none;stroke-width:0.29887;stroke-linecap:round;stroke-linejoin:round;stroke:rgb(0%,0%,0%);stroke-opacity:1;stroke-miterlimit:10;"
       d="M 60.789062 5.441406 L 61.34375 3.226562 L 62.453125 3.226562 L 63.003906 5.441406 L 62.453125 7.652344 L 61.34375 7.652344 L 60.789062 5.441406 "
       id="path100" />
    <path
       style=" stroke:none;fill-rule:nonzero;fill:rgb(0%,0%,0%);fill-opacity:1;"
       d="M 61.683594 4.894531 L 62.261719 4.894531 L 62.261719 4.753906 L 61.511719 4.753906 L 61.511719 5.535156 L 61.667969 5.535156 C 61.714844 5.425781 61.824219 5.378906 61.917969 5.378906 C 61.996094 5.378906 62.121094 5.441406 62.121094 5.707031 C 62.121094 5.972656 61.949219 6.035156 61.839844 6.035156 C 61.714844 6.035156 61.574219 5.957031 61.496094 5.847656 L 61.417969 5.972656 C 61.527344 6.097656 61.683594 6.175781 61.839844 6.175781 C 62.121094 6.175781 62.339844 5.957031 62.339844 5.707031 C 62.339844 5.441406 62.152344 5.238281 61.917969 5.238281 C 61.824219 5.238281 61.746094 5.269531 61.683594 5.316406 Z M 61.683594 4.894531 "
       id="path102" />
    <path
       style="fill-rule:nonzero;fill:rgb(9.01947%,54.116821%,69.018555%);fill-opacity:1;stroke-width:0.29887;stroke-linecap:round;stroke-linejoin:round;stroke:rgb(0%,0%,0%);stroke-opacity:1;stroke-miterlimit:10;"
       d="M 63.003906 5.441406 L 63.558594 3.226562 L 64.664062 3.226562 L 65.21875 5.441406 L 64.664062 7.652344 L 63.558594 7.652344 L 63.003906 5.441406 "
       id="path104" />
    <path
       style=" stroke:none;fill-rule:nonzero;fill:rgb(0%,0%,0%);fill-opacity:1;"
       d="M 64.476562 4.753906 C 64.367188 4.707031 64.273438 4.707031 64.242188 4.707031 C 63.929688 4.707031 63.648438 5.003906 63.648438 5.457031 C 63.648438 6.019531 63.898438 6.175781 64.117188 6.175781 C 64.289062 6.175781 64.367188 6.097656 64.429688 6.019531 C 64.570312 5.878906 64.570312 5.738281 64.570312 5.660156 C 64.570312 5.394531 64.429688 5.160156 64.226562 5.160156 C 64.007812 5.160156 63.898438 5.269531 63.835938 5.332031 C 63.867188 5.035156 64.023438 4.847656 64.242188 4.847656 C 64.289062 4.847656 64.367188 4.847656 64.476562 4.878906 Z M 63.851562 5.675781 C 63.851562 5.660156 63.851562 5.628906 63.851562 5.613281 C 63.851562 5.472656 63.945312 5.300781 64.117188 5.300781 C 64.382812 5.300781 64.382812 5.597656 64.382812 5.660156 C 64.382812 5.738281 64.382812 5.832031 64.320312 5.910156 C 64.273438 5.988281 64.210938 6.035156 64.117188 6.035156 C 63.898438 6.035156 63.851562 5.753906 63.851562 5.675781 Z M 63.851562 5.675781 "
       id="path106" />
    <path
       style="fill:none;stroke-width:0.29887;stroke-linecap:round;stroke-linejoin:round;stroke:rgb(0%,0%,0%);stroke-opacity:1;stroke-miterlimit:10;"
       d="M 65.21875 5.441406 L 65.773438 3.226562 L 66.878906 3.226562 L 67.433594 5.441406 L 66.878906 7.652344 L 65.773438 7.652344 L 65.21875 5.441406 "
       id="path108" />
    <path
       style=" stroke:none;fill-rule:nonzero;fill:rgb(0%,0%,0%);fill-opacity:1;"
       d="M 66.285156 4.910156 C 66.316406 4.910156 66.332031 4.910156 66.363281 4.910156 L 66.628906 4.910156 C 66.300781 5.222656 66.097656 5.660156 66.097656 6.144531 L 66.300781 6.144531 C 66.300781 5.535156 66.597656 5.097656 66.785156 4.894531 L 66.785156 4.753906 L 65.863281 4.753906 L 65.863281 4.910156 Z M 66.285156 4.910156 "
       id="path110" />
    <g
       clip-path="url(#clip1)"
       clip-rule="nonzero"
       id="g114">
      <path
         style="fill:none;stroke-width:0.29887;stroke-linecap:round;stroke-linejoin:round;stroke:rgb(0%,0%,0%);stroke-opacity:1;stroke-miterlimit:10;"
         d="M 67.433594 -5.441406 L 67.984375 -3.226562 L 71.085938 -3.226562 M 71.085938 -7.652344 L 67.984375 -7.652344 L 67.433594 -5.441406 "
         transform="matrix(1,0,0,-1,0,0)"
         id="path112" />
    </g>
    <path
       style=" stroke:none;fill-rule:nonzero;fill:rgb(0%,0%,0%);fill-opacity:1;"
       d="M 68.828125 5.347656 L 69.015625 5.347656 L 69.015625 5.535156 L 68.828125 5.535156 Z M 68.828125 5.347656 "
       id="path116" />
    <path
       style=" stroke:none;fill-rule:nonzero;fill:rgb(0%,0%,0%);fill-opacity:1;"
       d="M 69.445312 5.347656 L 69.632812 5.347656 L 69.632812 5.535156 L 69.445312 5.535156 Z M 69.445312 5.347656 "
       id="path118" />
    <path
       style=" stroke:none;fill-rule:nonzero;fill:rgb(0%,0%,0%);fill-opacity:1;"
       d="M 70.0625 5.347656 L 70.25 5.347656 L 70.25 5.535156 L 70.0625 5.535156 Z M 70.0625 5.347656 "
       id="path120" />
    <path
       style=" stroke:none;fill-rule:nonzero;fill:rgb(0%,0%,0%);fill-opacity:1;"
       d="M 4.703125 13.234375 C 4.859375 13.140625 5 12.96875 5 12.75 C 5 12.453125 4.71875 12.171875 4.3125 12.171875 L 3.6875 12.171875 C 3.640625 12.171875 3.53125 12.171875 3.53125 12.28125 C 3.53125 12.390625 3.640625 12.390625 3.6875 12.390625 L 3.765625 12.390625 L 3.765625 14.0625 L 3.6875 14.0625 C 3.640625 14.0625 3.53125 14.0625 3.53125 14.1875 C 3.53125 14.296875 3.640625 14.296875 3.6875 14.296875 L 4.109375 14.296875 C 4.15625 14.296875 4.25 14.296875 4.25 14.1875 C 4.25 14.0625 4.15625 14.0625 4.109375 14.0625 L 4.03125 14.0625 L 4.03125 13.34375 L 4.296875 13.34375 C 4.359375 13.34375 4.453125 13.34375 4.5625 13.4375 C 4.640625 13.5 4.640625 13.578125 4.640625 13.71875 C 4.640625 13.953125 4.640625 14.078125 4.734375 14.203125 C 4.8125 14.3125 4.921875 14.328125 4.984375 14.328125 C 5.21875 14.328125 5.3125 14.109375 5.3125 13.953125 C 5.3125 13.84375 5.203125 13.84375 5.171875 13.84375 C 5.140625 13.84375 5.046875 13.84375 5.046875 13.953125 C 5.046875 13.96875 5.03125 14.109375 4.984375 14.109375 C 4.90625 14.109375 4.90625 13.9375 4.90625 13.78125 C 4.90625 13.546875 4.90625 13.53125 4.875 13.453125 C 4.84375 13.375 4.78125 13.296875 4.703125 13.234375 Z M 4.265625 13.109375 L 4.03125 13.109375 L 4.03125 12.390625 L 4.265625 12.390625 C 4.578125 12.390625 4.734375 12.59375 4.734375 12.75 C 4.734375 12.921875 4.578125 13.109375 4.265625 13.109375 Z M 4.265625 13.109375 "
       id="path122" />
    <path
       style=" stroke:none;fill-rule:nonzero;fill:rgb(0%,0%,0%);fill-opacity:1;"
       d="M 6.355469 13.15625 L 6.746094 12.390625 L 6.808594 12.390625 C 6.871094 12.390625 6.964844 12.390625 6.964844 12.28125 C 6.964844 12.171875 6.855469 12.171875 6.808594 12.171875 L 6.449219 12.171875 C 6.402344 12.171875 6.292969 12.171875 6.292969 12.28125 C 6.292969 12.390625 6.402344 12.390625 6.449219 12.390625 L 6.230469 12.859375 L 5.980469 12.390625 C 6.027344 12.390625 6.136719 12.390625 6.136719 12.28125 C 6.136719 12.171875 6.027344 12.171875 5.980469 12.171875 L 5.621094 12.171875 C 5.558594 12.171875 5.464844 12.171875 5.464844 12.28125 C 5.464844 12.390625 5.574219 12.390625 5.621094 12.390625 L 5.683594 12.390625 L 6.089844 13.15625 L 5.652344 14.0625 L 5.574219 14.0625 C 5.527344 14.0625 5.417969 14.0625 5.417969 14.1875 C 5.417969 14.296875 5.527344 14.296875 5.574219 14.296875 L 5.933594 14.296875 C 5.996094 14.296875 6.089844 14.296875 6.089844 14.1875 C 6.089844 14.0625 5.996094 14.0625 5.933594 14.0625 L 6.230469 13.4375 L 6.542969 14.0625 C 6.496094 14.0625 6.402344 14.0625 6.402344 14.1875 C 6.402344 14.296875 6.496094 14.296875 6.542969 14.296875 L 6.917969 14.296875 C 6.964844 14.296875 7.074219 14.296875 7.074219 14.1875 C 7.074219 14.0625 6.964844 14.0625 6.917969 14.0625 L 6.839844 14.0625 Z M 6.355469 13.15625 "
       id="path124" />
    <path
       style="fill:none;stroke-width:0.29887;stroke-linecap:round;stroke-linejoin:round;stroke:rgb(0%,0%,0%);stroke-opacity:1;stroke-miterlimit:10;"
       d="M 10.644531 9.867188 L 12.859375 9.867188 L 13.414062 12.082031 L 12.859375 14.296875 L 10.644531 14.296875 "
       id="path126" />
    <path
       style=" stroke:none;fill-rule:nonzero;fill:rgb(0%,0%,0%);fill-opacity:1;"
       d="M 11.042969 11.988281 L 11.230469 11.988281 L 11.230469 12.175781 L 11.042969 12.175781 Z M 11.042969 11.988281 "
       id="path128" />
    <path
       style=" stroke:none;fill-rule:nonzero;fill:rgb(0%,0%,0%);fill-opacity:1;"
       d="M 11.664062 11.988281 L 11.851562 11.988281 L 11.851562 12.175781 L 11.664062 12.175781 Z M 11.664062 11.988281 "
       id="path130" />
    <path
       style=" stroke:none;fill-rule:nonzero;fill:rgb(0%,0%,0%);fill-opacity:1;"
       d="M 12.28125 11.988281 L 12.46875 11.988281 L 12.46875 12.175781 L 12.28125 12.175781 Z M 12.28125 11.988281 "
       id="path132" />
    <path
       style="fill:none;stroke-width:0.29887;stroke-linecap:round;stroke-linejoin:round;stroke:rgb(0%,0%,0%);stroke-opacity:1;stroke-miterlimit:10;"
       d="M 13.414062 12.082031 L 13.964844 9.867188 L 22.601562 9.867188 L 23.152344 12.082031 L 22.601562 14.296875 L 13.964844 14.296875 L 13.414062 12.082031 "
       id="path134" />
    <path
       style=" stroke:none;fill-rule:nonzero;fill:rgb(0%,0%,0%);fill-opacity:1;"
       d="M 16.332031 12.214844 C 16.613281 12.214844 16.847656 12.027344 16.847656 11.777344 C 16.847656 11.558594 16.628906 11.355469 16.316406 11.355469 L 15.753906 11.355469 L 15.753906 12.808594 L 15.972656 12.808594 L 15.972656 12.214844 Z M 16.269531 11.480469 C 16.503906 11.480469 16.660156 11.605469 16.660156 11.777344 C 16.660156 11.949219 16.519531 12.089844 16.269531 12.089844 L 15.957031 12.089844 L 15.957031 11.480469 Z M 16.269531 11.480469 "
       id="path136" />
    <path
       style=" stroke:none;fill-rule:nonzero;fill:rgb(0%,0%,0%);fill-opacity:1;"
       d="M 17.332031 12.355469 C 17.332031 12.136719 17.519531 12.011719 17.691406 12.011719 L 17.691406 11.855469 C 17.519531 11.855469 17.394531 11.949219 17.316406 12.058594 L 17.316406 11.871094 L 17.144531 11.871094 L 17.144531 12.808594 L 17.332031 12.808594 Z M 17.332031 12.355469 "
       id="path138" />
    <path
       style=" stroke:none;fill-rule:nonzero;fill:rgb(0%,0%,0%);fill-opacity:1;"
       d="M 18.105469 11.371094 L 17.886719 11.371094 L 17.886719 11.589844 L 18.105469 11.589844 Z M 18.089844 11.886719 L 17.902344 11.886719 L 17.902344 12.808594 L 18.089844 12.808594 Z M 18.089844 11.886719 "
       id="path140" />
    <path
       style=" stroke:none;fill-rule:nonzero;fill:rgb(0%,0%,0%);fill-opacity:1;"
       d="M 19.855469 12.183594 C 19.855469 12.027344 19.808594 11.855469 19.542969 11.855469 C 19.371094 11.855469 19.261719 11.964844 19.214844 12.027344 C 19.183594 11.964844 19.136719 11.855469 18.933594 11.855469 C 18.808594 11.855469 18.699219 11.902344 18.605469 12.011719 L 18.605469 11.871094 L 18.433594 11.871094 L 18.433594 12.808594 L 18.621094 12.808594 L 18.621094 12.292969 C 18.621094 12.167969 18.683594 11.996094 18.839844 11.996094 C 19.058594 11.996094 19.058594 12.136719 19.058594 12.199219 L 19.058594 12.808594 L 19.230469 12.808594 L 19.230469 12.292969 C 19.230469 12.167969 19.292969 11.996094 19.449219 11.996094 C 19.667969 11.996094 19.667969 12.136719 19.667969 12.199219 L 19.667969 12.808594 L 19.855469 12.808594 Z M 19.855469 12.183594 "
       id="path142" />
    <path
       style=" stroke:none;fill-rule:nonzero;fill:rgb(0%,0%,0%);fill-opacity:1;"
       d="M 20.933594 12.574219 C 20.808594 12.667969 20.683594 12.683594 20.589844 12.683594 C 20.402344 12.683594 20.261719 12.542969 20.261719 12.355469 L 20.949219 12.355469 C 20.949219 12.246094 20.933594 12.121094 20.855469 11.996094 C 20.777344 11.886719 20.652344 11.839844 20.558594 11.839844 C 20.292969 11.839844 20.105469 12.074219 20.105469 12.339844 C 20.105469 12.605469 20.308594 12.824219 20.589844 12.824219 C 20.714844 12.824219 20.839844 12.792969 20.933594 12.730469 Z M 20.277344 12.230469 C 20.324219 12.058594 20.449219 11.980469 20.558594 11.980469 C 20.652344 11.980469 20.777344 12.027344 20.824219 12.230469 Z M 20.277344 12.230469 "
       id="path144" />
    <path
       style="fill-rule:nonzero;fill:rgb(100%,69.018555%,69.018555%);fill-opacity:1;stroke-width:0.29887;stroke-linecap:round;stroke-linejoin:round;stroke:rgb(0%,0%,0%);stroke-opacity:1;stroke-miterlimit:10;"
       d="M 23.152344 12.082031 L 23.707031 9.867188 L 24.8125 9.867188 L 25.367188 12.082031 L 24.8125 14.296875 L 23.707031 14.296875 L 23.152344 12.082031 "
       id="path146" />
    <path
       style=" stroke:none;fill-rule:nonzero;fill:rgb(0%,0%,0%);fill-opacity:1;"
       d="M 24.675781 11.417969 C 24.550781 11.339844 24.425781 11.308594 24.269531 11.308594 C 23.957031 11.308594 23.769531 11.527344 23.769531 11.730469 C 23.769531 11.808594 23.800781 11.917969 23.894531 12.011719 C 23.988281 12.089844 24.082031 12.121094 24.222656 12.152344 C 24.394531 12.183594 24.441406 12.199219 24.503906 12.261719 C 24.535156 12.308594 24.566406 12.355469 24.566406 12.433594 C 24.566406 12.558594 24.457031 12.699219 24.253906 12.699219 C 24.128906 12.699219 23.941406 12.652344 23.769531 12.527344 L 23.738281 12.714844 C 23.847656 12.761719 24.019531 12.855469 24.253906 12.855469 C 24.550781 12.855469 24.753906 12.636719 24.753906 12.402344 C 24.753906 12.230469 24.660156 12.136719 24.613281 12.089844 C 24.519531 12.011719 24.425781 11.980469 24.269531 11.949219 C 24.144531 11.917969 24.066406 11.902344 24.019531 11.855469 C 24.003906 11.824219 23.941406 11.777344 23.941406 11.699219 C 23.941406 11.589844 24.066406 11.464844 24.269531 11.464844 C 24.425781 11.464844 24.535156 11.511719 24.644531 11.605469 Z M 24.675781 11.417969 "
       id="path148" />
    <path
       style="fill-rule:nonzero;fill:rgb(100%,69.018555%,69.018555%);fill-opacity:1;stroke-width:0.29887;stroke-linecap:round;stroke-linejoin:round;stroke:rgb(0%,0%,0%);stroke-opacity:1;stroke-miterlimit:10;"
       d="M 25.367188 12.082031 L 25.921875 9.867188 L 27.027344 9.867188 L 27.582031 12.082031 L 27.027344 14.296875 L 25.921875 14.296875 L 25.367188 12.082031 "
       id="path150" />
    <path
       style=" stroke:none;fill-rule:nonzero;fill:rgb(0%,0%,0%);fill-opacity:1;"
       d="M 26.886719 11.417969 C 26.761719 11.339844 26.636719 11.308594 26.480469 11.308594 C 26.167969 11.308594 25.980469 11.527344 25.980469 11.730469 C 25.980469 11.808594 26.011719 11.917969 26.105469 12.011719 C 26.199219 12.089844 26.292969 12.121094 26.433594 12.152344 C 26.605469 12.183594 26.652344 12.199219 26.714844 12.261719 C 26.746094 12.308594 26.777344 12.355469 26.777344 12.433594 C 26.777344 12.558594 26.667969 12.699219 26.464844 12.699219 C 26.339844 12.699219 26.152344 12.652344 25.980469 12.527344 L 25.949219 12.714844 C 26.058594 12.761719 26.230469 12.855469 26.464844 12.855469 C 26.761719 12.855469 26.964844 12.636719 26.964844 12.402344 C 26.964844 12.230469 26.871094 12.136719 26.824219 12.089844 C 26.730469 12.011719 26.636719 11.980469 26.480469 11.949219 C 26.355469 11.917969 26.277344 11.902344 26.230469 11.855469 C 26.214844 11.824219 26.152344 11.777344 26.152344 11.699219 C 26.152344 11.589844 26.277344 11.464844 26.480469 11.464844 C 26.636719 11.464844 26.746094 11.511719 26.855469 11.605469 Z M 26.886719 11.417969 "
       id="path152" />
    <path
       style="fill-rule:nonzero;fill:rgb(0%,66.665649%,0%);fill-opacity:1;stroke-width:0.29887;stroke-linecap:round;stroke-linejoin:round;stroke:rgb(0%,0%,0%);stroke-opacity:1;stroke-miterlimit:10;"
       d="M 27.582031 12.082031 L 28.136719 9.867188 L 29.242188 9.867188 L 29.796875 12.082031 L 29.242188 14.296875 L 28.136719 14.296875 L 27.582031 12.082031 "
       id="path154" />
    <path
       style=" stroke:none;fill-rule:nonzero;fill:rgb(0%,0%,0%);fill-opacity:1;"
       d="M 29.101562 11.417969 C 28.976562 11.339844 28.851562 11.308594 28.695312 11.308594 C 28.382812 11.308594 28.195312 11.527344 28.195312 11.730469 C 28.195312 11.808594 28.226562 11.917969 28.320312 12.011719 C 28.414062 12.089844 28.507812 12.121094 28.648438 12.152344 C 28.820312 12.183594 28.867188 12.199219 28.929688 12.261719 C 28.960938 12.308594 28.992188 12.355469 28.992188 12.433594 C 28.992188 12.558594 28.882812 12.699219 28.679688 12.699219 C 28.554688 12.699219 28.367188 12.652344 28.195312 12.527344 L 28.164062 12.714844 C 28.273438 12.761719 28.445312 12.855469 28.679688 12.855469 C 28.976562 12.855469 29.179688 12.636719 29.179688 12.402344 C 29.179688 12.230469 29.085938 12.136719 29.039062 12.089844 C 28.945312 12.011719 28.851562 11.980469 28.695312 11.949219 C 28.570312 11.917969 28.492188 11.902344 28.445312 11.855469 C 28.429688 11.824219 28.367188 11.777344 28.367188 11.699219 C 28.367188 11.589844 28.492188 11.464844 28.695312 11.464844 C 28.851562 11.464844 28.960938 11.511719 29.070312 11.605469 Z M 29.101562 11.417969 "
       id="path156" />
    <path
       style="fill-rule:nonzero;fill:rgb(100%,69.018555%,69.018555%);fill-opacity:1;stroke-width:0.29887;stroke-linecap:round;stroke-linejoin:round;stroke:rgb(0%,0%,0%);stroke-opacity:1;stroke-miterlimit:10;"
       d="M 29.796875 12.082031 L 30.347656 9.867188 L 31.457031 9.867188 L 32.007812 12.082031 L 31.457031 14.296875 L 30.347656 14.296875 L 29.796875 12.082031 "
       id="path158" />
    <path
       style=" stroke:none;fill-rule:nonzero;fill:rgb(0%,0%,0%);fill-opacity:1;"
       d="M 31.316406 11.417969 C 31.191406 11.339844 31.066406 11.308594 30.910156 11.308594 C 30.597656 11.308594 30.410156 11.527344 30.410156 11.730469 C 30.410156 11.808594 30.441406 11.917969 30.535156 12.011719 C 30.628906 12.089844 30.722656 12.121094 30.863281 12.152344 C 31.035156 12.183594 31.082031 12.199219 31.144531 12.261719 C 31.175781 12.308594 31.207031 12.355469 31.207031 12.433594 C 31.207031 12.558594 31.097656 12.699219 30.894531 12.699219 C 30.769531 12.699219 30.582031 12.652344 30.410156 12.527344 L 30.378906 12.714844 C 30.488281 12.761719 30.660156 12.855469 30.894531 12.855469 C 31.191406 12.855469 31.394531 12.636719 31.394531 12.402344 C 31.394531 12.230469 31.300781 12.136719 31.253906 12.089844 C 31.160156 12.011719 31.066406 11.980469 30.910156 11.949219 C 30.785156 11.917969 30.707031 11.902344 30.660156 11.855469 C 30.644531 11.824219 30.582031 11.777344 30.582031 11.699219 C 30.582031 11.589844 30.707031 11.464844 30.910156 11.464844 C 31.066406 11.464844 31.175781 11.511719 31.285156 11.605469 Z M 31.316406 11.417969 "
       id="path160" />
    <path
       style="fill-rule:nonzero;fill:rgb(100%,69.018555%,69.018555%);fill-opacity:1;stroke-width:0.29887;stroke-linecap:round;stroke-linejoin:round;stroke:rgb(0%,0%,0%);stroke-opacity:1;stroke-miterlimit:10;"
       d="M 32.007812 12.082031 L 32.5625 9.867188 L 33.671875 9.867188 L 34.222656 12.082031 L 33.671875 14.296875 L 32.5625 14.296875 L 32.007812 12.082031 "
       id="path162" />
    <path
       style=" stroke:none;fill-rule:nonzero;fill:rgb(0%,0%,0%);fill-opacity:1;"
       d="M 33.53125 11.417969 C 33.40625 11.339844 33.28125 11.308594 33.125 11.308594 C 32.8125 11.308594 32.625 11.527344 32.625 11.730469 C 32.625 11.808594 32.65625 11.917969 32.75 12.011719 C 32.84375 12.089844 32.9375 12.121094 33.078125 12.152344 C 33.25 12.183594 33.296875 12.199219 33.359375 12.261719 C 33.390625 12.308594 33.421875 12.355469 33.421875 12.433594 C 33.421875 12.558594 33.3125 12.699219 33.109375 12.699219 C 32.984375 12.699219 32.796875 12.652344 32.625 12.527344 L 32.59375 12.714844 C 32.703125 12.761719 32.875 12.855469 33.109375 12.855469 C 33.40625 12.855469 33.609375 12.636719 33.609375 12.402344 C 33.609375 12.230469 33.515625 12.136719 33.46875 12.089844 C 33.375 12.011719 33.28125 11.980469 33.125 11.949219 C 33 11.917969 32.921875 11.902344 32.875 11.855469 C 32.859375 11.824219 32.796875 11.777344 32.796875 11.699219 C 32.796875 11.589844 32.921875 11.464844 33.125 11.464844 C 33.28125 11.464844 33.390625 11.511719 33.5 11.605469 Z M 33.53125 11.417969 "
       id="path164" />
    <path
       style="fill-rule:nonzero;fill:rgb(100%,69.018555%,69.018555%);fill-opacity:1;stroke-width:0.29887;stroke-linecap:round;stroke-linejoin:round;stroke:rgb(0%,0%,0%);stroke-opacity:1;stroke-miterlimit:10;"
       d="M 34.222656 12.082031 L 34.777344 9.867188 L 35.882812 9.867188 L 36.4375 12.082031 L 35.882812 14.296875 L 34.777344 14.296875 L 34.222656 12.082031 "
       id="path166" />
    <path
       style=" stroke:none;fill-rule:nonzero;fill:rgb(0%,0%,0%);fill-opacity:1;"
       d="M 35.746094 11.417969 C 35.621094 11.339844 35.496094 11.308594 35.339844 11.308594 C 35.027344 11.308594 34.839844 11.527344 34.839844 11.730469 C 34.839844 11.808594 34.871094 11.917969 34.964844 12.011719 C 35.058594 12.089844 35.152344 12.121094 35.292969 12.152344 C 35.464844 12.183594 35.511719 12.199219 35.574219 12.261719 C 35.605469 12.308594 35.636719 12.355469 35.636719 12.433594 C 35.636719 12.558594 35.527344 12.699219 35.324219 12.699219 C 35.199219 12.699219 35.011719 12.652344 34.839844 12.527344 L 34.808594 12.714844 C 34.917969 12.761719 35.089844 12.855469 35.324219 12.855469 C 35.621094 12.855469 35.824219 12.636719 35.824219 12.402344 C 35.824219 12.230469 35.730469 12.136719 35.683594 12.089844 C 35.589844 12.011719 35.496094 11.980469 35.339844 11.949219 C 35.214844 11.917969 35.136719 11.902344 35.089844 11.855469 C 35.074219 11.824219 35.011719 11.777344 35.011719 11.699219 C 35.011719 11.589844 35.136719 11.464844 35.339844 11.464844 C 35.496094 11.464844 35.605469 11.511719 35.714844 11.605469 Z M 35.746094 11.417969 "
       id="path168" />
    <path
       style="fill-rule:nonzero;fill:rgb(100%,69.018555%,69.018555%);fill-opacity:1;stroke-width:0.29887;stroke-linecap:round;stroke-linejoin:round;stroke:rgb(0%,0%,0%);stroke-opacity:1;stroke-miterlimit:10;"
       d="M 36.4375 12.082031 L 36.992188 9.867188 L 38.097656 9.867188 L 38.652344 12.082031 L 38.097656 14.296875 L 36.992188 14.296875 L 36.4375 12.082031 "
       id="path170" />
    <path
       style=" stroke:none;fill-rule:nonzero;fill:rgb(0%,0%,0%);fill-opacity:1;"
       d="M 37.957031 11.417969 C 37.832031 11.339844 37.707031 11.308594 37.550781 11.308594 C 37.238281 11.308594 37.050781 11.527344 37.050781 11.730469 C 37.050781 11.808594 37.082031 11.917969 37.175781 12.011719 C 37.269531 12.089844 37.363281 12.121094 37.503906 12.152344 C 37.675781 12.183594 37.722656 12.199219 37.785156 12.261719 C 37.816406 12.308594 37.847656 12.355469 37.847656 12.433594 C 37.847656 12.558594 37.738281 12.699219 37.535156 12.699219 C 37.410156 12.699219 37.222656 12.652344 37.050781 12.527344 L 37.019531 12.714844 C 37.128906 12.761719 37.300781 12.855469 37.535156 12.855469 C 37.832031 12.855469 38.035156 12.636719 38.035156 12.402344 C 38.035156 12.230469 37.941406 12.136719 37.894531 12.089844 C 37.800781 12.011719 37.707031 11.980469 37.550781 11.949219 C 37.425781 11.917969 37.347656 11.902344 37.300781 11.855469 C 37.285156 11.824219 37.222656 11.777344 37.222656 11.699219 C 37.222656 11.589844 37.347656 11.464844 37.550781 11.464844 C 37.707031 11.464844 37.816406 11.511719 37.925781 11.605469 Z M 37.957031 11.417969 "
       id="path172" />
    <path
       style="fill-rule:nonzero;fill:rgb(100%,69.018555%,69.018555%);fill-opacity:1;stroke-width:0.29887;stroke-linecap:round;stroke-linejoin:round;stroke:rgb(0%,0%,0%);stroke-opacity:1;stroke-miterlimit:10;"
       d="M 38.652344 12.082031 L 39.203125 9.867188 L 40.3125 9.867188 L 40.867188 12.082031 L 40.3125 14.296875 L 39.203125 14.296875 L 38.652344 12.082031 "
       id="path174" />
    <path
       style=" stroke:none;fill-rule:nonzero;fill:rgb(0%,0%,0%);fill-opacity:1;"
       d="M 40.171875 11.417969 C 40.046875 11.339844 39.921875 11.308594 39.765625 11.308594 C 39.453125 11.308594 39.265625 11.527344 39.265625 11.730469 C 39.265625 11.808594 39.296875 11.917969 39.390625 12.011719 C 39.484375 12.089844 39.578125 12.121094 39.71875 12.152344 C 39.890625 12.183594 39.9375 12.199219 40 12.261719 C 40.03125 12.308594 40.0625 12.355469 40.0625 12.433594 C 40.0625 12.558594 39.953125 12.699219 39.75 12.699219 C 39.625 12.699219 39.4375 12.652344 39.265625 12.527344 L 39.234375 12.714844 C 39.34375 12.761719 39.515625 12.855469 39.75 12.855469 C 40.046875 12.855469 40.25 12.636719 40.25 12.402344 C 40.25 12.230469 40.15625 12.136719 40.109375 12.089844 C 40.015625 12.011719 39.921875 11.980469 39.765625 11.949219 C 39.640625 11.917969 39.5625 11.902344 39.515625 11.855469 C 39.5 11.824219 39.4375 11.777344 39.4375 11.699219 C 39.4375 11.589844 39.5625 11.464844 39.765625 11.464844 C 39.921875 11.464844 40.03125 11.511719 40.140625 11.605469 Z M 40.171875 11.417969 "
       id="path176" />
    <path
       style="fill:none;stroke-width:0.29887;stroke-linecap:round;stroke-linejoin:round;stroke:rgb(0%,0%,0%);stroke-opacity:1;stroke-miterlimit:10;"
       d="M 40.867188 12.082031 L 41.417969 9.867188 L 50.054688 9.867188 L 50.605469 12.082031 L 50.054688 14.296875 L 41.417969 14.296875 L 40.867188 12.082031 "
       id="path178" />
    <path
       style=" stroke:none;fill-rule:nonzero;fill:rgb(0%,0%,0%);fill-opacity:1;"
       d="M 43.785156 12.214844 C 44.066406 12.214844 44.300781 12.027344 44.300781 11.777344 C 44.300781 11.558594 44.082031 11.355469 43.769531 11.355469 L 43.207031 11.355469 L 43.207031 12.808594 L 43.425781 12.808594 L 43.425781 12.214844 Z M 43.722656 11.480469 C 43.957031 11.480469 44.113281 11.605469 44.113281 11.777344 C 44.113281 11.949219 43.972656 12.089844 43.722656 12.089844 L 43.410156 12.089844 L 43.410156 11.480469 Z M 43.722656 11.480469 "
       id="path180" />
    <path
       style=" stroke:none;fill-rule:nonzero;fill:rgb(0%,0%,0%);fill-opacity:1;"
       d="M 44.785156 12.355469 C 44.785156 12.136719 44.972656 12.011719 45.144531 12.011719 L 45.144531 11.855469 C 44.972656 11.855469 44.847656 11.949219 44.769531 12.058594 L 44.769531 11.871094 L 44.597656 11.871094 L 44.597656 12.808594 L 44.785156 12.808594 Z M 44.785156 12.355469 "
       id="path182" />
    <path
       style=" stroke:none;fill-rule:nonzero;fill:rgb(0%,0%,0%);fill-opacity:1;"
       d="M 45.558594 11.371094 L 45.339844 11.371094 L 45.339844 11.589844 L 45.558594 11.589844 Z M 45.542969 11.886719 L 45.355469 11.886719 L 45.355469 12.808594 L 45.542969 12.808594 Z M 45.542969 11.886719 "
       id="path184" />
    <path
       style=" stroke:none;fill-rule:nonzero;fill:rgb(0%,0%,0%);fill-opacity:1;"
       d="M 47.308594 12.183594 C 47.308594 12.027344 47.261719 11.855469 46.996094 11.855469 C 46.824219 11.855469 46.714844 11.964844 46.667969 12.027344 C 46.636719 11.964844 46.589844 11.855469 46.386719 11.855469 C 46.261719 11.855469 46.152344 11.902344 46.058594 12.011719 L 46.058594 11.871094 L 45.886719 11.871094 L 45.886719 12.808594 L 46.074219 12.808594 L 46.074219 12.292969 C 46.074219 12.167969 46.136719 11.996094 46.292969 11.996094 C 46.511719 11.996094 46.511719 12.136719 46.511719 12.199219 L 46.511719 12.808594 L 46.683594 12.808594 L 46.683594 12.292969 C 46.683594 12.167969 46.746094 11.996094 46.902344 11.996094 C 47.121094 11.996094 47.121094 12.136719 47.121094 12.199219 L 47.121094 12.808594 L 47.308594 12.808594 Z M 47.308594 12.183594 "
       id="path186" />
    <path
       style=" stroke:none;fill-rule:nonzero;fill:rgb(0%,0%,0%);fill-opacity:1;"
       d="M 48.386719 12.574219 C 48.261719 12.667969 48.136719 12.683594 48.042969 12.683594 C 47.855469 12.683594 47.714844 12.542969 47.714844 12.355469 L 48.402344 12.355469 C 48.402344 12.246094 48.386719 12.121094 48.308594 11.996094 C 48.230469 11.886719 48.105469 11.839844 48.011719 11.839844 C 47.746094 11.839844 47.558594 12.074219 47.558594 12.339844 C 47.558594 12.605469 47.761719 12.824219 48.042969 12.824219 C 48.167969 12.824219 48.292969 12.792969 48.386719 12.730469 Z M 47.730469 12.230469 C 47.777344 12.058594 47.902344 11.980469 48.011719 11.980469 C 48.105469 11.980469 48.230469 12.027344 48.277344 12.230469 Z M 47.730469 12.230469 "
       id="path188" />
    <path
       style="fill-rule:nonzero;fill:rgb(100%,69.018555%,69.018555%);fill-opacity:1;stroke-width:0.29887;stroke-linecap:round;stroke-linejoin:round;stroke:rgb(0%,0%,0%);stroke-opacity:1;stroke-miterlimit:10;"
       d="M 50.605469 12.082031 L 51.160156 9.867188 L 52.265625 9.867188 L 52.820312 12.082031 L 52.265625 14.296875 L 51.160156 14.296875 L 50.605469 12.082031 "
       id="path190" />
    <path
       style=" stroke:none;fill-rule:nonzero;fill:rgb(0%,0%,0%);fill-opacity:1;"
       d="M 52.128906 11.417969 C 52.003906 11.339844 51.878906 11.308594 51.722656 11.308594 C 51.410156 11.308594 51.222656 11.527344 51.222656 11.730469 C 51.222656 11.808594 51.253906 11.917969 51.347656 12.011719 C 51.441406 12.089844 51.535156 12.121094 51.675781 12.152344 C 51.847656 12.183594 51.894531 12.199219 51.957031 12.261719 C 51.988281 12.308594 52.019531 12.355469 52.019531 12.433594 C 52.019531 12.558594 51.910156 12.699219 51.707031 12.699219 C 51.582031 12.699219 51.394531 12.652344 51.222656 12.527344 L 51.191406 12.714844 C 51.300781 12.761719 51.472656 12.855469 51.707031 12.855469 C 52.003906 12.855469 52.207031 12.636719 52.207031 12.402344 C 52.207031 12.230469 52.113281 12.136719 52.066406 12.089844 C 51.972656 12.011719 51.878906 11.980469 51.722656 11.949219 C 51.597656 11.917969 51.519531 11.902344 51.472656 11.855469 C 51.457031 11.824219 51.394531 11.777344 51.394531 11.699219 C 51.394531 11.589844 51.519531 11.464844 51.722656 11.464844 C 51.878906 11.464844 51.988281 11.511719 52.097656 11.605469 Z M 52.128906 11.417969 "
       id="path192" />
    <path
       style="fill-rule:nonzero;fill:rgb(100%,69.018555%,69.018555%);fill-opacity:1;stroke-width:0.29887;stroke-linecap:round;stroke-linejoin:round;stroke:rgb(0%,0%,0%);stroke-opacity:1;stroke-miterlimit:10;"
       d="M 52.820312 12.082031 L 53.375 9.867188 L 54.480469 9.867188 L 55.035156 12.082031 L 54.480469 14.296875 L 53.375 14.296875 L 52.820312 12.082031 "
       id="path194" />
    <path
       style=" stroke:none;fill-rule:nonzero;fill:rgb(0%,0%,0%);fill-opacity:1;"
       d="M 54.339844 11.417969 C 54.214844 11.339844 54.089844 11.308594 53.933594 11.308594 C 53.621094 11.308594 53.433594 11.527344 53.433594 11.730469 C 53.433594 11.808594 53.464844 11.917969 53.558594 12.011719 C 53.652344 12.089844 53.746094 12.121094 53.886719 12.152344 C 54.058594 12.183594 54.105469 12.199219 54.167969 12.261719 C 54.199219 12.308594 54.230469 12.355469 54.230469 12.433594 C 54.230469 12.558594 54.121094 12.699219 53.917969 12.699219 C 53.792969 12.699219 53.605469 12.652344 53.433594 12.527344 L 53.402344 12.714844 C 53.511719 12.761719 53.683594 12.855469 53.917969 12.855469 C 54.214844 12.855469 54.417969 12.636719 54.417969 12.402344 C 54.417969 12.230469 54.324219 12.136719 54.277344 12.089844 C 54.183594 12.011719 54.089844 11.980469 53.933594 11.949219 C 53.808594 11.917969 53.730469 11.902344 53.683594 11.855469 C 53.667969 11.824219 53.605469 11.777344 53.605469 11.699219 C 53.605469 11.589844 53.730469 11.464844 53.933594 11.464844 C 54.089844 11.464844 54.199219 11.511719 54.308594 11.605469 Z M 54.339844 11.417969 "
       id="path196" />
    <path
       style="fill-rule:nonzero;fill:rgb(100%,69.018555%,69.018555%);fill-opacity:1;stroke-width:0.29887;stroke-linecap:round;stroke-linejoin:round;stroke:rgb(0%,0%,0%);stroke-opacity:1;stroke-miterlimit:10;"
       d="M 55.035156 12.082031 L 55.589844 9.867188 L 56.695312 9.867188 L 57.25 12.082031 L 56.695312 14.296875 L 55.589844 14.296875 L 55.035156 12.082031 "
       id="path198" />
    <path
       style=" stroke:none;fill-rule:nonzero;fill:rgb(0%,0%,0%);fill-opacity:1;"
       d="M 56.554688 11.417969 C 56.429688 11.339844 56.304688 11.308594 56.148438 11.308594 C 55.835938 11.308594 55.648438 11.527344 55.648438 11.730469 C 55.648438 11.808594 55.679688 11.917969 55.773438 12.011719 C 55.867188 12.089844 55.960938 12.121094 56.101562 12.152344 C 56.273438 12.183594 56.320312 12.199219 56.382812 12.261719 C 56.414062 12.308594 56.445312 12.355469 56.445312 12.433594 C 56.445312 12.558594 56.335938 12.699219 56.132812 12.699219 C 56.007812 12.699219 55.820312 12.652344 55.648438 12.527344 L 55.617188 12.714844 C 55.726562 12.761719 55.898438 12.855469 56.132812 12.855469 C 56.429688 12.855469 56.632812 12.636719 56.632812 12.402344 C 56.632812 12.230469 56.539062 12.136719 56.492188 12.089844 C 56.398438 12.011719 56.304688 11.980469 56.148438 11.949219 C 56.023438 11.917969 55.945312 11.902344 55.898438 11.855469 C 55.882812 11.824219 55.820312 11.777344 55.820312 11.699219 C 55.820312 11.589844 55.945312 11.464844 56.148438 11.464844 C 56.304688 11.464844 56.414062 11.511719 56.523438 11.605469 Z M 56.554688 11.417969 "
       id="path200" />
    <path
       style="fill-rule:nonzero;fill:rgb(100%,69.018555%,69.018555%);fill-opacity:1;stroke-width:0.29887;stroke-linecap:round;stroke-linejoin:round;stroke:rgb(0%,0%,0%);stroke-opacity:1;stroke-miterlimit:10;"
       d="M 57.25 12.082031 L 57.800781 9.867188 L 58.910156 9.867188 L 59.460938 12.082031 L 58.910156 14.296875 L 57.800781 14.296875 L 57.25 12.082031 "
       id="path202" />
    <path
       style=" stroke:none;fill-rule:nonzero;fill:rgb(0%,0%,0%);fill-opacity:1;"
       d="M 58.769531 11.417969 C 58.644531 11.339844 58.519531 11.308594 58.363281 11.308594 C 58.050781 11.308594 57.863281 11.527344 57.863281 11.730469 C 57.863281 11.808594 57.894531 11.917969 57.988281 12.011719 C 58.082031 12.089844 58.175781 12.121094 58.316406 12.152344 C 58.488281 12.183594 58.535156 12.199219 58.597656 12.261719 C 58.628906 12.308594 58.660156 12.355469 58.660156 12.433594 C 58.660156 12.558594 58.550781 12.699219 58.347656 12.699219 C 58.222656 12.699219 58.035156 12.652344 57.863281 12.527344 L 57.832031 12.714844 C 57.941406 12.761719 58.113281 12.855469 58.347656 12.855469 C 58.644531 12.855469 58.847656 12.636719 58.847656 12.402344 C 58.847656 12.230469 58.753906 12.136719 58.707031 12.089844 C 58.613281 12.011719 58.519531 11.980469 58.363281 11.949219 C 58.238281 11.917969 58.160156 11.902344 58.113281 11.855469 C 58.097656 11.824219 58.035156 11.777344 58.035156 11.699219 C 58.035156 11.589844 58.160156 11.464844 58.363281 11.464844 C 58.519531 11.464844 58.628906 11.511719 58.738281 11.605469 Z M 58.769531 11.417969 "
       id="path204" />
    <path
       style="fill-rule:nonzero;fill:rgb(100%,69.018555%,69.018555%);fill-opacity:1;stroke-width:0.29887;stroke-linecap:round;stroke-linejoin:round;stroke:rgb(0%,0%,0%);stroke-opacity:1;stroke-miterlimit:10;"
       d="M 59.460938 12.082031 L 60.015625 9.867188 L 61.121094 9.867188 L 61.675781 12.082031 L 61.121094 14.296875 L 60.015625 14.296875 L 59.460938 12.082031 "
       id="path206" />
    <path
       style=" stroke:none;fill-rule:nonzero;fill:rgb(0%,0%,0%);fill-opacity:1;"
       d="M 60.980469 11.417969 C 60.855469 11.339844 60.730469 11.308594 60.574219 11.308594 C 60.261719 11.308594 60.074219 11.527344 60.074219 11.730469 C 60.074219 11.808594 60.105469 11.917969 60.199219 12.011719 C 60.292969 12.089844 60.386719 12.121094 60.527344 12.152344 C 60.699219 12.183594 60.746094 12.199219 60.808594 12.261719 C 60.839844 12.308594 60.871094 12.355469 60.871094 12.433594 C 60.871094 12.558594 60.761719 12.699219 60.558594 12.699219 C 60.433594 12.699219 60.246094 12.652344 60.074219 12.527344 L 60.042969 12.714844 C 60.152344 12.761719 60.324219 12.855469 60.558594 12.855469 C 60.855469 12.855469 61.058594 12.636719 61.058594 12.402344 C 61.058594 12.230469 60.964844 12.136719 60.917969 12.089844 C 60.824219 12.011719 60.730469 11.980469 60.574219 11.949219 C 60.449219 11.917969 60.371094 11.902344 60.324219 11.855469 C 60.308594 11.824219 60.246094 11.777344 60.246094 11.699219 C 60.246094 11.589844 60.371094 11.464844 60.574219 11.464844 C 60.730469 11.464844 60.839844 11.511719 60.949219 11.605469 Z M 60.980469 11.417969 "
       id="path208" />
    <path
       style="fill-rule:nonzero;fill:rgb(100%,69.018555%,69.018555%);fill-opacity:1;stroke-width:0.29887;stroke-linecap:round;stroke-linejoin:round;stroke:rgb(0%,0%,0%);stroke-opacity:1;stroke-miterlimit:10;"
       d="M 61.675781 12.082031 L 62.230469 9.867188 L 63.335938 9.867188 L 63.890625 12.082031 L 63.335938 14.296875 L 62.230469 14.296875 L 61.675781 12.082031 "
       id="path210" />
    <path
       style=" stroke:none;fill-rule:nonzero;fill:rgb(0%,0%,0%);fill-opacity:1;"
       d="M 63.195312 11.417969 C 63.070312 11.339844 62.945312 11.308594 62.789062 11.308594 C 62.476562 11.308594 62.289062 11.527344 62.289062 11.730469 C 62.289062 11.808594 62.320312 11.917969 62.414062 12.011719 C 62.507812 12.089844 62.601562 12.121094 62.742188 12.152344 C 62.914062 12.183594 62.960938 12.199219 63.023438 12.261719 C 63.054688 12.308594 63.085938 12.355469 63.085938 12.433594 C 63.085938 12.558594 62.976562 12.699219 62.773438 12.699219 C 62.648438 12.699219 62.460938 12.652344 62.289062 12.527344 L 62.257812 12.714844 C 62.367188 12.761719 62.539062 12.855469 62.773438 12.855469 C 63.070312 12.855469 63.273438 12.636719 63.273438 12.402344 C 63.273438 12.230469 63.179688 12.136719 63.132812 12.089844 C 63.039062 12.011719 62.945312 11.980469 62.789062 11.949219 C 62.664062 11.917969 62.585938 11.902344 62.539062 11.855469 C 62.523438 11.824219 62.460938 11.777344 62.460938 11.699219 C 62.460938 11.589844 62.585938 11.464844 62.789062 11.464844 C 62.945312 11.464844 63.054688 11.511719 63.164062 11.605469 Z M 63.195312 11.417969 "
       id="path212" />
    <path
       style="fill-rule:nonzero;fill:rgb(0%,66.665649%,0%);fill-opacity:1;stroke-width:0.29887;stroke-linecap:round;stroke-linejoin:round;stroke:rgb(0%,0%,0%);stroke-opacity:1;stroke-miterlimit:10;"
       d="M 63.890625 12.082031 L 64.445312 9.867188 L 65.550781 9.867188 L 66.105469 12.082031 L 65.550781 14.296875 L 64.445312 14.296875 L 63.890625 12.082031 "
       id="path214" />
    <path
       style=" stroke:none;fill-rule:nonzero;fill:rgb(0%,0%,0%);fill-opacity:1;"
       d="M 65.410156 11.417969 C 65.285156 11.339844 65.160156 11.308594 65.003906 11.308594 C 64.691406 11.308594 64.503906 11.527344 64.503906 11.730469 C 64.503906 11.808594 64.535156 11.917969 64.628906 12.011719 C 64.722656 12.089844 64.816406 12.121094 64.957031 12.152344 C 65.128906 12.183594 65.175781 12.199219 65.238281 12.261719 C 65.269531 12.308594 65.300781 12.355469 65.300781 12.433594 C 65.300781 12.558594 65.191406 12.699219 64.988281 12.699219 C 64.863281 12.699219 64.675781 12.652344 64.503906 12.527344 L 64.472656 12.714844 C 64.582031 12.761719 64.753906 12.855469 64.988281 12.855469 C 65.285156 12.855469 65.488281 12.636719 65.488281 12.402344 C 65.488281 12.230469 65.394531 12.136719 65.347656 12.089844 C 65.253906 12.011719 65.160156 11.980469 65.003906 11.949219 C 64.878906 11.917969 64.800781 11.902344 64.753906 11.855469 C 64.738281 11.824219 64.675781 11.777344 64.675781 11.699219 C 64.675781 11.589844 64.800781 11.464844 65.003906 11.464844 C 65.160156 11.464844 65.269531 11.511719 65.378906 11.605469 Z M 65.410156 11.417969 "
       id="path216" />
    <path
       style="fill-rule:nonzero;fill:rgb(100%,69.018555%,69.018555%);fill-opacity:1;stroke-width:0.29887;stroke-linecap:round;stroke-linejoin:round;stroke:rgb(0%,0%,0%);stroke-opacity:1;stroke-miterlimit:10;"
       d="M 66.105469 12.082031 L 66.65625 9.867188 L 67.765625 9.867188 L 68.316406 12.082031 L 67.765625 14.296875 L 66.65625 14.296875 L 66.105469 12.082031 "
       id="path218" />
    <path
       style=" stroke:none;fill-rule:nonzero;fill:rgb(0%,0%,0%);fill-opacity:1;"
       d="M 67.625 11.417969 C 67.5 11.339844 67.375 11.308594 67.21875 11.308594 C 66.90625 11.308594 66.71875 11.527344 66.71875 11.730469 C 66.71875 11.808594 66.75 11.917969 66.84375 12.011719 C 66.9375 12.089844 67.03125 12.121094 67.171875 12.152344 C 67.34375 12.183594 67.390625 12.199219 67.453125 12.261719 C 67.484375 12.308594 67.515625 12.355469 67.515625 12.433594 C 67.515625 12.558594 67.40625 12.699219 67.203125 12.699219 C 67.078125 12.699219 66.890625 12.652344 66.71875 12.527344 L 66.6875 12.714844 C 66.796875 12.761719 66.96875 12.855469 67.203125 12.855469 C 67.5 12.855469 67.703125 12.636719 67.703125 12.402344 C 67.703125 12.230469 67.609375 12.136719 67.5625 12.089844 C 67.46875 12.011719 67.375 11.980469 67.21875 11.949219 C 67.09375 11.917969 67.015625 11.902344 66.96875 11.855469 C 66.953125 11.824219 66.890625 11.777344 66.890625 11.699219 C 66.890625 11.589844 67.015625 11.464844 67.21875 11.464844 C 67.375 11.464844 67.484375 11.511719 67.59375 11.605469 Z M 67.625 11.417969 "
       id="path220" />
    <g
       clip-path="url(#clip2)"
       clip-rule="nonzero"
       id="g224">
      <path
         style="fill:none;stroke-width:0.29887;stroke-linecap:round;stroke-linejoin:round;stroke:rgb(0%,0%,0%);stroke-opacity:1;stroke-miterlimit:10;"
         d="M 68.316406 -12.082031 L 68.871094 -9.867188 L 71.085938 -9.867188 M 71.085938 -14.296875 L 68.871094 -14.296875 L 68.316406 -12.082031 "
         transform="matrix(1,0,0,-1,0,0)"
         id="path222" />
    </g>
    <path
       style=" stroke:none;fill-rule:nonzero;fill:rgb(0%,0%,0%);fill-opacity:1;"
       d="M 69.269531 11.988281 L 69.457031 11.988281 L 69.457031 12.175781 L 69.269531 12.175781 Z M 69.269531 11.988281 "
       id="path226" />
    <path
       style=" stroke:none;fill-rule:nonzero;fill:rgb(0%,0%,0%);fill-opacity:1;"
       d="M 69.886719 11.988281 L 70.074219 11.988281 L 70.074219 12.175781 L 69.886719 12.175781 Z M 69.886719 11.988281 "
       id="path228" />
    <path
       style=" stroke:none;fill-rule:nonzero;fill:rgb(0%,0%,0%);fill-opacity:1;"
       d="M 70.503906 11.988281 L 70.691406 11.988281 L 70.691406 12.175781 L 70.503906 12.175781 Z M 70.503906 11.988281 "
       id="path230" />
    <path
       style="fill:none;stroke-width:0.075;stroke-linecap:butt;stroke-linejoin:miter;stroke:rgb(0%,0%,0%);stroke-opacity:1;stroke-miterlimit:4;"
       d="M 13.414062 2.332031 L 22.125 2.332031 "
       id="path232" />
    <path
       style="fill-rule:evenodd;fill:rgb(0%,0%,0%);fill-opacity:1;stroke-width:0.0140625;stroke-linecap:butt;stroke-linejoin:round;stroke:rgb(0%,0%,0%);stroke-opacity:1;stroke-miterlimit:4;"
       d="M 13.558594 2.421875 L 13.3125 2.332031 L 13.558594 2.242188 C 13.519531 2.296875 13.519531 2.367188 13.558594 2.421875 Z M 13.558594 2.421875 "
       id="path234" />
    <path
       style="fill-rule:evenodd;fill:rgb(0%,0%,0%);fill-opacity:1;stroke-width:0.0140625;stroke-linecap:butt;stroke-linejoin:round;stroke:rgb(0%,0%,0%);stroke-opacity:1;stroke-miterlimit:4;"
       d="M 21.980469 2.242188 L 22.226562 2.332031 L 21.980469 2.421875 C 22.019531 2.367188 22.019531 2.296875 21.980469 2.242188 Z M 21.980469 2.242188 "
       id="path236" />
    <path
       style="fill:none;stroke-width:0.075;stroke-linecap:butt;stroke-linejoin:miter;stroke:rgb(0%,0%,0%);stroke-opacity:1;stroke-miterlimit:4;"
       d="M 34.253906 15.433594 L 36.378906 15.433594 "
       id="path238" />
    <path
       style="fill-rule:evenodd;fill:rgb(0%,0%,0%);fill-opacity:1;stroke-width:0.0140625;stroke-linecap:butt;stroke-linejoin:round;stroke:rgb(0%,0%,0%);stroke-opacity:1;stroke-miterlimit:4;"
       d="M 34.398438 15.523438 L 34.152344 15.433594 L 34.398438 15.34375 C 34.355469 15.398438 34.359375 15.46875 34.398438 15.523438 Z M 34.398438 15.523438 "
       id="path240" />
    <path
       style="fill-rule:evenodd;fill:rgb(0%,0%,0%);fill-opacity:1;stroke-width:0.0140625;stroke-linecap:butt;stroke-linejoin:round;stroke:rgb(0%,0%,0%);stroke-opacity:1;stroke-miterlimit:4;"
       d="M 36.234375 15.34375 L 36.480469 15.433594 L 36.234375 15.523438 C 36.273438 15.46875 36.273438 15.398438 36.234375 15.34375 Z M 36.234375 15.34375 "
       id="path242" />
    <path
       style="fill:none;stroke-width:0.075;stroke-linecap:butt;stroke-linejoin:miter;stroke:rgb(0%,0%,0%);stroke-opacity:1;stroke-miterlimit:4;"
       d="M 22.378906 15.433594 L 22.96875 15.433594 "
       id="path244" />
    <path
       style="fill-rule:evenodd;fill:rgb(0%,0%,0%);fill-opacity:1;stroke-width:0.0140625;stroke-linecap:butt;stroke-linejoin:round;stroke:rgb(0%,0%,0%);stroke-opacity:1;stroke-miterlimit:4;"
       d="M 22.523438 15.523438 L 22.277344 15.433594 L 22.523438 15.34375 C 22.484375 15.398438 22.484375 15.46875 22.523438 15.523438 Z M 22.523438 15.523438 "
       id="path246" />
    <path
       style="fill-rule:evenodd;fill:rgb(0%,0%,0%);fill-opacity:1;stroke-width:0.0140625;stroke-linecap:butt;stroke-linejoin:round;stroke:rgb(0%,0%,0%);stroke-opacity:1;stroke-miterlimit:4;"
       d="M 22.824219 15.34375 L 23.070312 15.433594 L 22.824219 15.523438 C 22.863281 15.472656 22.863281 15.398438 22.824219 15.34375 Z M 22.824219 15.34375 "
       id="path248" />
    <path
       style=" stroke:none;fill-rule:nonzero;fill:rgb(0%,0%,0%);fill-opacity:1;"
       d="M 34.207031 17.074219 C 34.246094 17.085938 34.367188 17.113281 34.367188 17.238281 C 34.367188 17.3125 34.304688 17.398438 34.191406 17.398438 C 34.144531 17.398438 34.078125 17.394531 34.019531 17.355469 C 33.949219 17.316406 33.949219 17.253906 33.949219 17.226562 C 33.949219 17.203125 33.949219 17.179688 33.898438 17.179688 C 33.851562 17.179688 33.851562 17.207031 33.851562 17.238281 L 33.851562 17.429688 C 33.851562 17.453125 33.851562 17.488281 33.890625 17.488281 C 33.925781 17.488281 33.933594 17.46875 33.949219 17.425781 C 34.003906 17.464844 34.09375 17.488281 34.183594 17.488281 C 34.351562 17.488281 34.460938 17.359375 34.460938 17.234375 C 34.460938 17.140625 34.40625 17.074219 34.390625 17.054688 C 34.328125 17.003906 34.292969 16.992188 34.175781 16.960938 L 34.0625 16.9375 C 34 16.921875 33.945312 16.871094 33.945312 16.800781 C 33.945312 16.726562 34.011719 16.65625 34.117188 16.65625 C 34.289062 16.65625 34.3125 16.796875 34.324219 16.839844 C 34.324219 16.871094 34.34375 16.878906 34.367188 16.878906 C 34.417969 16.878906 34.417969 16.847656 34.417969 16.820312 L 34.417969 16.628906 C 34.417969 16.605469 34.417969 16.570312 34.375 16.570312 C 34.339844 16.570312 34.332031 16.59375 34.320312 16.636719 C 34.261719 16.585938 34.179688 16.570312 34.117188 16.570312 C 33.957031 16.570312 33.847656 16.683594 33.847656 16.804688 C 33.847656 16.902344 33.917969 17.003906 34.035156 17.035156 C 34.039062 17.035156 34.179688 17.070312 34.203125 17.074219 Z M 34.207031 17.074219 "
       id="path250" />
    <path
       style=" stroke:none;fill-rule:nonzero;fill:rgb(0%,0%,0%);fill-opacity:1;"
       d="M 34.796875 16.671875 L 34.878906 16.671875 C 34.898438 16.671875 34.933594 16.671875 34.933594 16.628906 C 34.933594 16.585938 34.898438 16.585938 34.878906 16.585938 L 34.644531 16.585938 C 34.617188 16.585938 34.582031 16.585938 34.582031 16.628906 C 34.582031 16.671875 34.617188 16.671875 34.644531 16.671875 L 34.695312 16.671875 L 34.695312 17.386719 L 34.644531 17.386719 C 34.617188 17.386719 34.582031 17.386719 34.582031 17.429688 C 34.582031 17.472656 34.617188 17.472656 34.644531 17.472656 L 35.1875 17.472656 C 35.238281 17.472656 35.242188 17.460938 35.242188 17.414062 L 35.242188 17.28125 C 35.242188 17.253906 35.242188 17.222656 35.199219 17.222656 C 35.144531 17.222656 35.144531 17.253906 35.144531 17.28125 L 35.144531 17.386719 L 34.796875 17.386719 Z M 34.796875 16.671875 "
       id="path252" />
    <path
       style=" stroke:none;fill-rule:nonzero;fill:rgb(0%,0%,0%);fill-opacity:1;"
       d="M 35.980469 17.027344 C 35.980469 16.609375 35.949219 16.570312 35.679688 16.570312 C 35.410156 16.570312 35.378906 16.609375 35.378906 17.027344 C 35.378906 17.449219 35.410156 17.488281 35.679688 17.488281 C 35.949219 17.488281 35.980469 17.449219 35.980469 17.027344 Z M 35.679688 17.398438 C 35.550781 17.398438 35.519531 17.371094 35.5 17.296875 C 35.484375 17.222656 35.484375 17.09375 35.484375 17.015625 C 35.484375 16.929688 35.484375 16.828125 35.5 16.761719 C 35.519531 16.675781 35.5625 16.65625 35.679688 16.65625 C 35.789062 16.65625 35.835938 16.671875 35.863281 16.75 C 35.882812 16.820312 35.882812 16.929688 35.882812 17.015625 C 35.882812 17.105469 35.882812 17.207031 35.863281 17.289062 C 35.84375 17.371094 35.808594 17.398438 35.675781 17.398438 Z M 35.679688 17.398438 "
       id="path254" />
    <path
       style=" stroke:none;fill-rule:nonzero;fill:rgb(0%,0%,0%);fill-opacity:1;"
       d="M 36.492188 16.671875 L 36.6875 16.671875 L 36.6875 16.75 C 36.6875 16.777344 36.6875 16.808594 36.734375 16.808594 C 36.785156 16.808594 36.785156 16.78125 36.785156 16.75 L 36.785156 16.644531 C 36.785156 16.597656 36.777344 16.585938 36.726562 16.585938 L 36.164062 16.585938 C 36.113281 16.585938 36.101562 16.59375 36.101562 16.644531 L 36.101562 16.75 C 36.101562 16.777344 36.101562 16.808594 36.148438 16.808594 C 36.203125 16.808594 36.203125 16.78125 36.203125 16.75 L 36.203125 16.671875 L 36.394531 16.671875 L 36.394531 17.386719 L 36.320312 17.386719 C 36.296875 17.386719 36.261719 17.386719 36.261719 17.425781 C 36.261719 17.472656 36.296875 17.472656 36.320312 17.472656 L 36.570312 17.472656 C 36.589844 17.472656 36.628906 17.472656 36.628906 17.429688 C 36.628906 17.386719 36.589844 17.386719 36.570312 17.386719 L 36.492188 17.386719 Z M 36.492188 16.671875 "
       id="path256" />
    <path
       style="fill:none;stroke-width:0.02475;stroke-linecap:butt;stroke-linejoin:miter;stroke:rgb(49.01886%,49.01886%,49.01886%);stroke-opacity:0.5;stroke-dasharray:0.24752,0.12376;stroke-miterlimit:10;"
       d="M 23.140625 16.15625 L 23.140625 0.921875 "
       id="path258" />
    <path
       style="fill:none;stroke-width:0.02475;stroke-linecap:butt;stroke-linejoin:miter;stroke:rgb(49.01886%,49.01886%,49.01886%);stroke-opacity:0.5;stroke-dasharray:0.24752,0.12376;stroke-miterlimit:10;"
       d="M 22.246094 16.15625 L 22.246094 0.921875 "
       id="path260" />
    <path
       style=" stroke:none;fill-rule:nonzero;fill:rgb(0%,0%,0%);fill-opacity:1;"
       d="M 15.339844 1.625 L 15.519531 1.625 C 15.6875 1.625 15.796875 1.496094 15.796875 1.359375 C 15.796875 1.226562 15.6875 1.09375 15.519531 1.09375 L 15.195312 1.09375 C 15.171875 1.09375 15.136719 1.09375 15.136719 1.136719 C 15.136719 1.183594 15.171875 1.183594 15.195312 1.183594 L 15.238281 1.183594 L 15.238281 1.894531 L 15.195312 1.894531 C 15.171875 1.894531 15.136719 1.894531 15.136719 1.9375 C 15.136719 1.984375 15.171875 1.984375 15.195312 1.984375 L 15.382812 1.984375 C 15.40625 1.984375 15.441406 1.984375 15.441406 1.9375 C 15.441406 1.894531 15.40625 1.894531 15.382812 1.894531 L 15.339844 1.894531 Z M 15.339844 1.183594 L 15.496094 1.183594 C 15.632812 1.183594 15.691406 1.28125 15.691406 1.359375 C 15.691406 1.4375 15.632812 1.535156 15.496094 1.535156 L 15.339844 1.535156 Z M 15.339844 1.183594 "
       id="path262" />
    <path
       style=" stroke:none;fill-rule:nonzero;fill:rgb(0%,0%,0%);fill-opacity:1;"
       d="M 16.085938 1.183594 L 16.1875 1.183594 C 16.328125 1.183594 16.390625 1.269531 16.390625 1.339844 C 16.390625 1.410156 16.328125 1.496094 16.1875 1.496094 L 16.085938 1.496094 Z M 16.367188 1.542969 C 16.460938 1.488281 16.488281 1.398438 16.488281 1.339844 C 16.488281 1.210938 16.378906 1.09375 16.207031 1.09375 L 15.953125 1.09375 C 15.929688 1.09375 15.894531 1.09375 15.894531 1.136719 C 15.894531 1.183594 15.929688 1.183594 15.953125 1.183594 L 15.988281 1.183594 L 15.988281 1.894531 L 15.953125 1.894531 C 15.929688 1.894531 15.894531 1.894531 15.894531 1.9375 C 15.894531 1.984375 15.929688 1.984375 15.953125 1.984375 L 16.121094 1.984375 C 16.144531 1.984375 16.179688 1.984375 16.179688 1.9375 C 16.179688 1.894531 16.148438 1.894531 16.121094 1.894531 L 16.085938 1.894531 L 16.085938 1.585938 L 16.199219 1.585938 C 16.226562 1.585938 16.273438 1.585938 16.316406 1.625 C 16.351562 1.652344 16.351562 1.683594 16.351562 1.746094 C 16.351562 1.839844 16.351562 1.886719 16.375 1.933594 C 16.398438 1.972656 16.445312 2 16.492188 2 C 16.585938 2 16.617188 1.90625 16.617188 1.847656 C 16.617188 1.800781 16.585938 1.800781 16.566406 1.800781 C 16.550781 1.800781 16.523438 1.800781 16.519531 1.839844 C 16.519531 1.855469 16.519531 1.910156 16.492188 1.910156 C 16.449219 1.910156 16.449219 1.839844 16.449219 1.765625 C 16.449219 1.675781 16.449219 1.664062 16.433594 1.628906 C 16.417969 1.585938 16.386719 1.554688 16.367188 1.542969 Z M 16.367188 1.542969 "
       id="path264" />
    <path
       style=" stroke:none;fill-rule:nonzero;fill:rgb(0%,0%,0%);fill-opacity:1;"
       d="M 16.765625 1.894531 L 16.71875 1.894531 C 16.699219 1.894531 16.660156 1.894531 16.660156 1.9375 C 16.660156 1.984375 16.699219 1.984375 16.71875 1.984375 L 17.296875 1.984375 C 17.34375 1.984375 17.355469 1.96875 17.355469 1.925781 L 17.355469 1.792969 C 17.355469 1.765625 17.355469 1.734375 17.304688 1.734375 C 17.25 1.734375 17.25 1.761719 17.25 1.792969 L 17.25 1.894531 L 16.863281 1.894531 L 16.863281 1.566406 L 17.054688 1.566406 C 17.054688 1.625 17.054688 1.648438 17.109375 1.648438 C 17.15625 1.648438 17.15625 1.621094 17.15625 1.589844 L 17.15625 1.453125 C 17.15625 1.429688 17.15625 1.394531 17.109375 1.394531 C 17.054688 1.394531 17.054688 1.417969 17.054688 1.476562 L 16.863281 1.476562 L 16.863281 1.183594 L 17.222656 1.183594 L 17.222656 1.261719 C 17.222656 1.285156 17.222656 1.320312 17.269531 1.320312 C 17.320312 1.320312 17.320312 1.289062 17.320312 1.261719 L 17.320312 1.152344 C 17.320312 1.109375 17.308594 1.09375 17.261719 1.09375 L 16.71875 1.09375 C 16.699219 1.09375 16.660156 1.09375 16.660156 1.136719 C 16.660156 1.183594 16.699219 1.183594 16.71875 1.183594 L 16.765625 1.183594 Z M 16.765625 1.894531 "
       id="path266" />
    <path
       style=" stroke:none;fill-rule:nonzero;fill:rgb(0%,0%,0%);fill-opacity:1;"
       d="M 17.628906 1.625 L 17.8125 1.625 C 17.976562 1.625 18.082031 1.496094 18.082031 1.359375 C 18.082031 1.226562 17.972656 1.09375 17.8125 1.09375 L 17.480469 1.09375 C 17.460938 1.09375 17.421875 1.09375 17.421875 1.136719 C 17.421875 1.183594 17.460938 1.183594 17.480469 1.183594 L 17.527344 1.183594 L 17.527344 1.894531 L 17.480469 1.894531 C 17.460938 1.894531 17.421875 1.894531 17.421875 1.9375 C 17.421875 1.984375 17.460938 1.984375 17.480469 1.984375 L 17.667969 1.984375 C 17.691406 1.984375 17.726562 1.984375 17.726562 1.9375 C 17.726562 1.894531 17.691406 1.894531 17.667969 1.894531 L 17.628906 1.894531 Z M 17.628906 1.183594 L 17.78125 1.183594 C 17.917969 1.183594 17.984375 1.28125 17.984375 1.359375 C 17.984375 1.4375 17.917969 1.535156 17.78125 1.535156 L 17.628906 1.535156 Z M 17.628906 1.183594 "
       id="path268" />
    <path
       style=" stroke:none;fill-rule:nonzero;fill:rgb(0%,0%,0%);fill-opacity:1;"
       d="M 18.609375 1.132812 C 18.59375 1.078125 18.574219 1.078125 18.527344 1.078125 C 18.488281 1.078125 18.464844 1.078125 18.449219 1.132812 L 18.277344 1.894531 C 18.253906 1.894531 18.21875 1.894531 18.214844 1.894531 C 18.195312 1.90625 18.183594 1.917969 18.183594 1.9375 C 18.183594 1.984375 18.222656 1.984375 18.25 1.984375 L 18.402344 1.984375 C 18.425781 1.984375 18.460938 1.984375 18.460938 1.9375 C 18.460938 1.894531 18.429688 1.894531 18.375 1.894531 L 18.410156 1.742188 L 18.648438 1.742188 L 18.683594 1.894531 C 18.628906 1.894531 18.597656 1.894531 18.597656 1.9375 C 18.597656 1.984375 18.632812 1.984375 18.660156 1.984375 L 18.808594 1.984375 C 18.835938 1.984375 18.867188 1.984375 18.867188 1.9375 C 18.867188 1.917969 18.863281 1.90625 18.84375 1.898438 C 18.839844 1.894531 18.804688 1.894531 18.785156 1.894531 Z M 18.527344 1.191406 L 18.621094 1.652344 L 18.429688 1.652344 Z M 18.527344 1.191406 "
       id="path270" />
    <path
       style=" stroke:none;fill-rule:nonzero;fill:rgb(0%,0%,0%);fill-opacity:1;"
       d="M 19.140625 1.183594 L 19.242188 1.183594 C 19.375 1.183594 19.4375 1.269531 19.4375 1.339844 C 19.4375 1.410156 19.375 1.496094 19.242188 1.496094 L 19.140625 1.496094 Z M 19.417969 1.542969 C 19.511719 1.488281 19.542969 1.398438 19.542969 1.339844 C 19.542969 1.210938 19.429688 1.09375 19.257812 1.09375 L 19 1.09375 C 18.976562 1.09375 18.941406 1.09375 18.941406 1.136719 C 18.941406 1.183594 18.980469 1.183594 19 1.183594 L 19.039062 1.183594 L 19.039062 1.894531 L 19 1.894531 C 18.976562 1.894531 18.941406 1.894531 18.941406 1.9375 C 18.941406 1.984375 18.980469 1.984375 19 1.984375 L 19.171875 1.984375 C 19.199219 1.984375 19.230469 1.984375 19.230469 1.9375 C 19.230469 1.894531 19.199219 1.894531 19.171875 1.894531 L 19.140625 1.894531 L 19.140625 1.585938 L 19.253906 1.585938 C 19.277344 1.585938 19.324219 1.585938 19.371094 1.625 C 19.398438 1.652344 19.398438 1.683594 19.398438 1.746094 C 19.398438 1.839844 19.398438 1.886719 19.429688 1.933594 C 19.453125 1.972656 19.492188 2 19.546875 2 C 19.636719 2 19.671875 1.90625 19.671875 1.847656 C 19.671875 1.800781 19.636719 1.800781 19.621094 1.800781 C 19.605469 1.800781 19.570312 1.800781 19.570312 1.839844 C 19.570312 1.855469 19.566406 1.910156 19.542969 1.910156 C 19.503906 1.910156 19.503906 1.839844 19.503906 1.765625 C 19.503906 1.675781 19.503906 1.664062 19.488281 1.628906 C 19.472656 1.585938 19.4375 1.554688 19.417969 1.542969 Z M 19.417969 1.542969 "
       id="path272" />
    <path
       style=" stroke:none;fill-rule:nonzero;fill:rgb(0%,0%,0%);fill-opacity:1;"
       d="M 19.816406 1.894531 L 19.773438 1.894531 C 19.75 1.894531 19.714844 1.894531 19.714844 1.9375 C 19.714844 1.984375 19.75 1.984375 19.773438 1.984375 L 20.347656 1.984375 C 20.394531 1.984375 20.402344 1.96875 20.402344 1.925781 L 20.402344 1.792969 C 20.402344 1.765625 20.402344 1.734375 20.355469 1.734375 C 20.304688 1.734375 20.304688 1.761719 20.304688 1.792969 L 20.304688 1.894531 L 19.914062 1.894531 L 19.914062 1.566406 L 20.101562 1.566406 C 20.101562 1.625 20.101562 1.648438 20.15625 1.648438 C 20.207031 1.648438 20.207031 1.621094 20.207031 1.589844 L 20.207031 1.453125 C 20.207031 1.429688 20.207031 1.394531 20.15625 1.394531 C 20.101562 1.394531 20.101562 1.417969 20.101562 1.476562 L 19.914062 1.476562 L 19.914062 1.183594 L 20.269531 1.183594 L 20.269531 1.261719 C 20.269531 1.285156 20.269531 1.320312 20.320312 1.320312 C 20.375 1.320312 20.375 1.289062 20.375 1.261719 L 20.375 1.152344 C 20.375 1.109375 20.363281 1.09375 20.3125 1.09375 L 19.773438 1.09375 C 19.75 1.09375 19.714844 1.09375 19.714844 1.136719 C 19.714844 1.183594 19.75 1.183594 19.773438 1.183594 L 19.816406 1.183594 Z M 19.816406 1.894531 "
       id="path274" />
    <path
       style=" stroke:none;fill-rule:nonzero;fill:rgb(0%,0%,0%);fill-opacity:1;"
       d="M 21.105469 17.03125 C 21.105469 16.625 21.078125 16.585938 20.816406 16.585938 C 20.558594 16.585938 20.53125 16.625 20.53125 17.03125 C 20.53125 17.433594 20.558594 17.472656 20.816406 17.472656 C 21.078125 17.472656 21.105469 17.433594 21.105469 17.03125 Z M 20.816406 17.386719 C 20.695312 17.386719 20.660156 17.359375 20.640625 17.289062 C 20.628906 17.214844 20.628906 17.09375 20.628906 17.019531 C 20.628906 16.929688 20.628906 16.835938 20.640625 16.769531 C 20.660156 16.691406 20.703125 16.671875 20.816406 16.671875 C 20.921875 16.671875 20.972656 16.683594 20.992188 16.761719 C 21.011719 16.828125 21.011719 16.933594 21.011719 17.019531 C 21.011719 17.105469 21.011719 17.203125 20.996094 17.277344 C 20.980469 17.359375 20.941406 17.386719 20.816406 17.386719 Z M 20.816406 17.386719 "
       id="path276" />
    <path
       style=" stroke:none;fill-rule:nonzero;fill:rgb(0%,0%,0%);fill-opacity:1;"
       d="M 21.425781 17.074219 L 21.613281 17.074219 C 21.613281 17.128906 21.613281 17.152344 21.664062 17.152344 C 21.710938 17.152344 21.710938 17.121094 21.710938 17.09375 L 21.710938 16.964844 C 21.710938 16.9375 21.710938 16.90625 21.664062 16.90625 C 21.613281 16.90625 21.613281 16.929688 21.613281 16.988281 L 21.425781 16.988281 L 21.425781 16.6875 L 21.773438 16.6875 L 21.773438 16.761719 C 21.773438 16.789062 21.773438 16.820312 21.820312 16.820312 C 21.871094 16.820312 21.871094 16.789062 21.871094 16.761719 L 21.871094 16.660156 C 21.871094 16.617188 21.863281 16.601562 21.8125 16.601562 L 21.28125 16.601562 C 21.261719 16.601562 21.226562 16.601562 21.226562 16.644531 C 21.226562 16.6875 21.261719 16.6875 21.28125 16.6875 L 21.328125 16.6875 L 21.328125 17.371094 L 21.28125 17.371094 C 21.261719 17.371094 21.226562 17.371094 21.226562 17.414062 C 21.226562 17.457031 21.261719 17.457031 21.28125 17.457031 L 21.496094 17.457031 C 21.519531 17.457031 21.554688 17.457031 21.554688 17.414062 C 21.554688 17.371094 21.519531 17.371094 21.496094 17.371094 L 21.425781 17.371094 Z M 21.425781 17.074219 "
       id="path278" />
    <path
       style=" stroke:none;fill-rule:nonzero;fill:rgb(0%,0%,0%);fill-opacity:1;"
       d="M 22.15625 17.074219 L 22.347656 17.074219 C 22.347656 17.128906 22.347656 17.152344 22.398438 17.152344 C 22.445312 17.152344 22.445312 17.121094 22.445312 17.09375 L 22.445312 16.964844 C 22.445312 16.9375 22.445312 16.90625 22.398438 16.90625 C 22.347656 16.90625 22.347656 16.929688 22.347656 16.988281 L 22.15625 16.988281 L 22.15625 16.6875 L 22.507812 16.6875 L 22.507812 16.761719 C 22.507812 16.789062 22.507812 16.820312 22.554688 16.820312 C 22.605469 16.820312 22.605469 16.789062 22.605469 16.761719 L 22.605469 16.660156 C 22.605469 16.617188 22.597656 16.601562 22.546875 16.601562 L 22.015625 16.601562 C 21.992188 16.601562 21.957031 16.601562 21.957031 16.644531 C 21.957031 16.6875 21.992188 16.6875 22.015625 16.6875 L 22.0625 16.6875 L 22.0625 17.371094 L 22.015625 17.371094 C 21.992188 17.371094 21.957031 17.371094 21.957031 17.414062 C 21.957031 17.457031 21.992188 17.457031 22.015625 17.457031 L 22.230469 17.457031 C 22.253906 17.457031 22.289062 17.457031 22.289062 17.414062 C 22.289062 17.371094 22.253906 17.371094 22.230469 17.371094 L 22.15625 17.371094 Z M 22.15625 17.074219 "
       id="path280" />
    <path
       style=" stroke:none;fill-rule:nonzero;fill:rgb(0%,0%,0%);fill-opacity:1;"
       d="M 23.066406 17.074219 C 23.105469 17.082031 23.222656 17.109375 23.222656 17.230469 C 23.222656 17.304688 23.160156 17.386719 23.050781 17.386719 C 23.011719 17.386719 22.945312 17.382812 22.886719 17.34375 C 22.828125 17.304688 22.824219 17.246094 22.820312 17.222656 C 22.820312 17.199219 22.820312 17.171875 22.777344 17.171875 C 22.726562 17.171875 22.726562 17.203125 22.726562 17.230469 L 22.726562 17.414062 C 22.726562 17.4375 22.726562 17.472656 22.765625 17.472656 C 22.796875 17.472656 22.804688 17.453125 22.820312 17.410156 C 22.875 17.449219 22.960938 17.472656 23.050781 17.472656 C 23.210938 17.472656 23.3125 17.347656 23.3125 17.222656 C 23.3125 17.132812 23.261719 17.074219 23.246094 17.058594 C 23.1875 17.003906 23.148438 16.992188 23.039062 16.96875 L 22.929688 16.941406 C 22.871094 16.925781 22.816406 16.875 22.816406 16.808594 C 22.816406 16.738281 22.886719 16.671875 22.984375 16.671875 C 23.148438 16.671875 23.171875 16.804688 23.179688 16.847656 C 23.183594 16.878906 23.199219 16.886719 23.226562 16.886719 C 23.273438 16.886719 23.273438 16.855469 23.273438 16.828125 L 23.273438 16.644531 C 23.273438 16.621094 23.273438 16.585938 23.234375 16.585938 C 23.199219 16.585938 23.191406 16.609375 23.179688 16.652344 C 23.125 16.605469 23.050781 16.585938 22.984375 16.585938 C 22.832031 16.585938 22.726562 16.699219 22.726562 16.816406 C 22.726562 16.910156 22.789062 17.003906 22.90625 17.035156 C 22.910156 17.039062 23.046875 17.070312 23.066406 17.074219 Z M 23.066406 17.074219 "
       id="path282" />
    <path
       style=" stroke:none;fill-rule:nonzero;fill:rgb(0%,0%,0%);fill-opacity:1;"
       d="M 23.523438 17.371094 L 23.480469 17.371094 C 23.457031 17.371094 23.421875 17.371094 23.421875 17.414062 C 23.421875 17.457031 23.457031 17.457031 23.480469 17.457031 L 24.03125 17.457031 C 24.078125 17.457031 24.085938 17.445312 24.085938 17.398438 L 24.085938 17.273438 C 24.085938 17.25 24.085938 17.21875 24.042969 17.21875 C 23.992188 17.21875 23.992188 17.246094 23.992188 17.273438 L 23.992188 17.371094 L 23.617188 17.371094 L 23.617188 17.058594 L 23.800781 17.058594 C 23.800781 17.113281 23.800781 17.136719 23.851562 17.136719 C 23.898438 17.136719 23.898438 17.105469 23.898438 17.078125 L 23.898438 16.949219 C 23.898438 16.921875 23.898438 16.890625 23.851562 16.890625 C 23.800781 16.890625 23.800781 16.914062 23.800781 16.972656 L 23.617188 16.972656 L 23.617188 16.6875 L 23.960938 16.6875 L 23.960938 16.761719 C 23.960938 16.789062 23.960938 16.820312 24.007812 16.820312 C 24.058594 16.820312 24.058594 16.789062 24.058594 16.761719 L 24.058594 16.660156 C 24.058594 16.617188 24.046875 16.601562 24.003906 16.601562 L 23.480469 16.601562 C 23.457031 16.601562 23.421875 16.601562 23.421875 16.644531 C 23.421875 16.6875 23.457031 16.6875 23.480469 16.6875 L 23.523438 16.6875 Z M 23.523438 17.371094 "
       id="path284" />
    <path
       style=" stroke:none;fill-rule:nonzero;fill:rgb(0%,0%,0%);fill-opacity:1;"
       d="M 24.535156 16.6875 L 24.71875 16.6875 L 24.71875 16.761719 C 24.71875 16.789062 24.71875 16.820312 24.765625 16.820312 C 24.816406 16.820312 24.816406 16.789062 24.816406 16.761719 L 24.816406 16.660156 C 24.816406 16.617188 24.808594 16.601562 24.761719 16.601562 L 24.214844 16.601562 C 24.167969 16.601562 24.15625 16.613281 24.15625 16.660156 L 24.15625 16.761719 C 24.15625 16.789062 24.15625 16.820312 24.203125 16.820312 C 24.253906 16.820312 24.253906 16.789062 24.253906 16.761719 L 24.253906 16.6875 L 24.4375 16.6875 L 24.4375 17.371094 L 24.367188 17.371094 C 24.347656 17.371094 24.3125 17.371094 24.3125 17.414062 C 24.3125 17.457031 24.34375 17.457031 24.367188 17.457031 L 24.609375 17.457031 C 24.628906 17.457031 24.664062 17.457031 24.664062 17.414062 C 24.664062 17.371094 24.628906 17.371094 24.609375 17.371094 L 24.535156 17.371094 Z M 24.535156 16.6875 "
       id="path286" />
  </g>
</svg>
